<svg width="318" height="246" viewBox="0 0 318 246" fill="none" xmlns="http://www.w3.org/2000/svg">
<g clip-path="url(#clip0)">
<path d="M243.435 223.926C252.786 223.926 260.367 208.465 260.367 189.393C260.367 170.321 252.786 154.861 243.435 154.861C234.083 154.861 226.503 170.321 226.503 189.393C226.503 208.465 234.083 223.926 243.435 223.926Z" fill="#231F20"/>
<path d="M241.871 245.918C248.653 205.249 241.939 164.726 241.871 164.322L240.552 164.545C240.62 164.948 247.295 205.257 240.551 245.698L241.871 245.918Z" fill="#CACACA"/>
<path d="M228.527 181.968L227.896 183.147L243.208 191.333L243.839 190.154L228.527 181.968Z" fill="#CACACA"/>
<path d="M259.368 186.068L244.058 194.259L244.689 195.438L259.999 187.248L259.368 186.068Z" fill="#CACACA"/>
<path d="M284.118 202.282C302.409 202.282 317.236 172.043 317.236 134.74C317.236 97.4378 302.409 67.1983 284.118 67.1983C265.828 67.1983 251.001 97.4378 251.001 134.74C251.001 172.043 265.828 202.282 284.118 202.282Z" fill="#E6E6E6"/>
<path d="M280.43 245.191C293.676 165.751 280.563 86.6014 280.429 85.8112L279.11 86.0345C279.244 86.8228 292.318 165.76 279.11 244.971L280.43 245.191Z" fill="#CACACA"/>
<path d="M254.659 120.78L254.028 121.959L283.976 137.971L284.607 136.791L254.659 120.78Z" fill="#CACACA"/>
<path d="M315.583 128.801L285.639 144.82L286.27 146L316.214 129.98L315.583 128.801Z" fill="#CACACA"/>
<path d="M207.202 245.403H31.0468C30.3989 245.402 29.7778 245.145 29.3197 244.687C28.8615 244.229 28.6038 243.608 28.6031 242.961V131.703C28.6038 131.055 28.8615 130.435 29.3196 129.977C29.7778 129.519 30.3989 129.261 31.0468 129.26H207.202C207.85 129.261 208.471 129.519 208.93 129.977C209.388 130.435 209.645 131.055 209.646 131.703V242.961C209.645 243.608 209.388 244.229 208.93 244.687C208.471 245.145 207.85 245.402 207.202 245.403Z" fill="#E4E4E4"/>
<path d="M47.2466 142.743C46.969 142.743 46.7028 142.853 46.5064 143.05C46.3101 143.246 46.1996 143.512 46.1993 143.789V230.874C46.1996 231.152 46.3101 231.418 46.5064 231.614C46.7028 231.811 46.969 231.921 47.2466 231.921H191.003C191.28 231.921 191.546 231.811 191.743 231.614C191.939 231.418 192.05 231.152 192.05 230.874V143.789C192.05 143.512 191.939 143.246 191.743 143.05C191.546 142.853 191.28 142.743 191.003 142.743H47.2466Z" fill="white"/>
<path d="M192.399 165.172V159.654H172.069V142.394H166.548V159.654H130.355V142.394H124.834V159.654H69.0108V142.394H63.4898V159.654H44.1864V165.172H63.4898V186.633H44.1864V192.151H63.4898V215.145H44.1864V220.663H93.2419V232.27H98.7629V220.663H124.834V232.27H130.355V220.663H192.399V215.145H130.355V192.151H192.399V186.633H172.069V165.172H192.399ZM124.834 165.172V171.917H69.0108V165.172H124.834ZM69.0108 177.436H124.834V186.633H69.0108V177.436ZM69.0108 215.145V192.151H93.2419V215.145H69.0108ZM124.834 215.145H98.7629V192.151H124.834V215.145ZM166.548 186.633H130.355V165.172H166.548V186.633Z" fill="#E6E6E6"/>
<path d="M127.595 197.141C131.491 197.141 134.649 193.984 134.649 190.09C134.649 186.196 131.491 183.039 127.595 183.039C123.699 183.039 120.54 186.196 120.54 190.09C120.54 193.984 123.699 197.141 127.595 197.141Z" fill="#FEC807"/>
<path d="M317.862 246H0V245.239H318L317.862 246Z" fill="#CACACA"/>
<path d="M128.44 148.202C152.474 148.202 171.958 128.727 171.958 104.705C171.958 80.682 152.474 61.2077 128.44 61.2077C104.406 61.2077 84.9228 80.682 84.9228 104.705C84.9228 128.727 104.406 148.202 128.44 148.202Z" fill="#FEC807"/>
<path d="M128.866 175.414L115.118 151.939L101.369 128.465L128.582 128.301L155.796 128.137L142.331 151.776L128.866 175.414Z" fill="#FEC807"/>
<path d="M128.79 120.037C137.413 120.037 144.403 113.05 144.403 104.431C144.403 95.8122 137.413 88.8251 128.79 88.8251C120.167 88.8251 113.176 95.8122 113.176 104.431C113.176 113.05 120.167 120.037 128.79 120.037Z" fill="white"/>
<path d="M127.434 0.223503C127.434 0.223503 118.122 -2.39832 115.368 10.3175C112.614 23.0333 114.363 21.4312 114.363 21.4312L135.151 19.006C135.151 19.006 141.401 4.09067 127.434 0.223503Z" fill="black"/>
<path d="M113.892 56.0081C113.892 56.0081 99.8432 56.6581 102.276 62.1699C102.448 62.5596 102.608 62.9246 102.756 63.2651C104.495 67.2574 106.497 71.1301 108.748 74.8579L117.383 89.1573L120.525 87.4126L111.683 64.4395L119.63 63.7911L113.892 56.0081Z" fill="#FFD9B6"/>
<path d="M150.932 61.8458L155.474 71.7346C155.474 71.7346 158.88 75.139 162.61 88.7564C166.34 102.374 167.151 101.887 167.151 101.887L163.464 103.115L148.337 75.6253L140.877 66.2228L143.147 61.1974L150.932 61.8458Z" fill="#FFD9B6"/>
<path d="M145.418 50.4979L151.944 62.638C151.944 62.638 166.739 91.6964 165.21 91.5999C163.491 91.4914 158.663 93.494 157.18 95.4382C156.465 96.3766 146.009 73.4551 142.337 68.3302L134.389 62.17C134.389 62.17 111.825 65.966 111.797 64.7316C111.783 64.127 119.268 78.6341 117.732 77.9913C115.982 77.259 111.866 80.8225 110.052 80.0849C109.303 79.7806 104.013 66.9608 101.871 61.7076C101.603 61.0519 101.589 60.3195 101.832 59.654C102.076 58.9885 102.559 58.4378 103.188 58.1099C104.797 57.2733 127.158 52.1698 127.158 52.1698L126.766 50.1737L128.388 46.9314L145.418 50.4979Z" fill="black"/>
<path d="M132.037 14.7106C132.596 11.2639 130.255 8.01641 126.806 7.45711C123.358 6.8978 120.109 9.23846 119.549 12.6851C118.99 16.1318 121.332 19.3793 124.78 19.9386C128.228 20.4979 131.477 18.1572 132.037 14.7106Z" fill="#FFD9B6"/>
<path d="M146.009 51.4719C146.358 52.5192 144.096 53.1208 140.943 52.5324C138.215 52.0233 135.229 51.4186 132.874 50.9291C130.352 50.4038 128.551 50.0115 128.551 50.0115C128.551 50.0115 127.902 54.0643 125.793 53.578C123.977 53.1597 118.548 34.2072 117.081 28.9694C116.973 28.5869 116.994 28.1799 117.139 27.8103C117.285 27.4407 117.547 27.1287 117.887 26.9219L125.342 22.3714C125.342 22.3714 130.481 20.6076 132.354 20.5574C134.227 20.5071 137.471 20.0208 137.471 20.0208C137.471 20.0208 141.201 20.345 141.85 23.1009C142.499 25.8568 145.206 42.1968 145.256 46.1208C145.311 50.4251 144.962 48.3315 146.009 51.4719Z" fill="url(#paint0_linear)"/>
<path d="M128.158 5.57703C128.158 5.57703 125.535 12.5248 119.109 15.4088L118.059 9.24757L128.158 5.57703Z" fill="black"/>
<path d="M131.956 12.9689C132.449 12.9689 132.848 12.2068 132.848 11.2668C132.848 10.3267 132.449 9.56458 131.956 9.56458C131.464 9.56458 131.064 10.3267 131.064 11.2668C131.064 12.2068 131.464 12.9689 131.956 12.9689Z" fill="#FFD9B6"/>
<path d="M123.139 90.7784L110.6 96.5402L110.527 96.3817C109.932 95.0879 109.876 93.6109 110.37 92.2756C110.865 90.9402 111.87 89.8558 113.164 89.2609L113.164 89.2608L120.822 85.7417L123.139 90.7784Z" fill="black"/>
<path d="M161.595 102.29L169.286 98.8433L169.286 98.8431C170.586 98.2608 172.065 98.2185 173.396 98.7254C174.727 99.2323 175.802 100.247 176.385 101.546L176.456 101.706L163.864 107.348L161.595 102.29Z" fill="black"/>
<path opacity="0.2" d="M140.772 36.4675L139.304 52.6098L141.914 52.7329L140.772 36.4675Z" fill="black"/>
<path d="M130.537 66.6235C130.848 66.2763 131.079 65.8652 131.214 65.4191C131.349 64.973 131.385 64.5028 131.318 64.0415C131.252 63.5802 131.085 63.1392 130.829 62.7493C130.574 62.3595 130.236 62.0305 129.839 61.7853L124.198 33.3029L117.72 35.7801L125.302 62.9984C124.934 63.6916 124.834 64.4955 125.019 65.2579C125.205 66.0203 125.663 66.6883 126.309 67.1351C126.954 67.5819 127.741 67.7767 128.52 67.6824C129.3 67.5881 130.017 67.2113 130.537 66.6235Z" fill="#FFD9B6"/>
<path d="M125.625 38.1032L118.512 39.3554C118.31 39.3911 118.102 39.3827 117.903 39.3308C117.704 39.279 117.519 39.1849 117.36 39.0551C117.201 38.9252 117.071 38.7625 116.981 38.5782C116.89 38.3938 116.84 38.1921 116.835 37.9868L116.638 30.7921C116.462 29.756 116.703 28.6922 117.31 27.834C117.917 26.9757 118.84 26.3931 119.876 26.2138C120.912 26.0345 121.977 26.2732 122.837 26.8776C123.697 27.482 124.283 28.4027 124.465 29.4379L126.734 36.244C126.799 36.4389 126.821 36.6455 126.799 36.8497C126.777 37.0539 126.711 37.2509 126.606 37.4274C126.5 37.6038 126.358 37.7555 126.189 37.8721C126.02 37.9887 125.828 38.0676 125.625 38.1032H125.625Z" fill="url(#paint1_linear)"/>
<path d="M135.991 66.1223C136.397 65.8932 136.748 65.5779 137.019 65.1986C137.29 64.8193 137.474 64.3853 137.559 63.927C137.644 63.4688 137.627 62.9975 137.51 62.5464C137.393 62.0952 137.179 61.6752 136.882 61.3159L140.676 32.5295L133.746 32.7997L132.195 61.0108C131.624 61.5494 131.271 62.2786 131.202 63.0603C131.133 63.8419 131.354 64.6216 131.822 65.2517C132.289 65.8817 132.972 66.3183 133.741 66.4788C134.509 66.6393 135.31 66.5124 135.991 66.1223Z" fill="#FFD9B6"/>
<path d="M140.488 37.5339L133.349 36.4402C133.146 36.409 132.952 36.3345 132.78 36.2217C132.608 36.1089 132.463 35.9604 132.354 35.7863C132.245 35.6123 132.174 35.4167 132.148 35.2131C132.121 35.0094 132.138 34.8024 132.199 34.6061L134.321 27.7284C134.486 26.6905 135.056 25.7603 135.907 25.1419C136.757 24.5235 137.818 24.2674 138.856 24.4296C139.895 24.5919 140.828 25.1593 141.448 26.0075C142.069 26.8557 142.328 27.9154 142.169 28.9542L142.135 36.1282C142.134 36.3336 142.088 36.5364 142.002 36.7227C141.915 36.909 141.79 37.0745 141.633 37.2079C141.477 37.3413 141.294 37.4395 141.096 37.4957C140.899 37.552 140.691 37.565 140.488 37.5339Z" fill="url(#paint2_linear)"/>
</g>
<defs>
<linearGradient id="paint0_linear" x1="131.529" y1="14.2462" x2="131.529" y2="64.9052" gradientUnits="userSpaceOnUse">
<stop stop-color="#FEC807"/>
<stop offset="0.458333" stop-color="#D0A920"/>
<stop offset="1" stop-color="#786E18"/>
</linearGradient>
<linearGradient id="paint1_linear" x1="121.694" y1="23.8831" x2="121.694" y2="43.8187" gradientUnits="userSpaceOnUse">
<stop stop-color="#FEC807"/>
<stop offset="0.458333" stop-color="#D0A920"/>
<stop offset="1" stop-color="#786E18"/>
</linearGradient>
<linearGradient id="paint2_linear" x1="137.175" y1="22.1187" x2="137.175" y2="41.9741" gradientUnits="userSpaceOnUse">
<stop stop-color="#FEC807"/>
<stop offset="0.458333" stop-color="#D0A920"/>
<stop offset="1" stop-color="#786E18"/>
</linearGradient>
<clipPath id="clip0">
<rect width="318" height="246" fill="white"/>
</clipPath>
</defs>
</svg>
