<svg width="411" height="273" viewBox="0 0 411 273" fill="none" xmlns="http://www.w3.org/2000/svg">
<path d="M255.806 163.358V166.426H278.85V163.358H255.806Z" fill="#E0E0E0"/>
<path d="M258.946 163.483C259.136 164.431 259.136 165.407 258.946 166.355C258.749 165.408 258.749 164.431 258.946 163.483Z" fill="#FAFAFA"/>
<path d="M258.442 163.423C258.631 164.371 258.631 165.347 258.442 166.295C258.252 165.347 258.252 164.371 258.442 163.423Z" fill="#FAFAFA"/>
<path d="M277.063 163.483C277.26 164.431 277.26 165.408 277.063 166.355C276.873 165.407 276.873 164.431 277.063 163.483Z" fill="#FAFAFA"/>
<path d="M276.564 166.295C276.643 166.295 276.707 165.652 276.707 164.859C276.707 164.066 276.643 163.423 276.564 163.423C276.486 163.423 276.422 164.066 276.422 164.859C276.422 165.652 276.486 166.295 276.564 166.295Z" fill="#FAFAFA"/>
<path d="M273.551 164.985C273.551 165.061 270.915 165.127 267.66 165.127C264.405 165.127 261.763 165.061 261.763 164.985C263.725 164.837 265.693 164.788 267.66 164.837C269.625 164.788 271.591 164.837 273.551 164.985Z" fill="#FAFAFA"/>
<path d="M255.708 177.166V183.298H278.751V177.166H255.708Z" fill="#E0E0E0"/>
<path d="M279.042 181.572C279.003 181.601 278.961 181.625 278.916 181.643C278.833 181.687 278.702 181.747 278.532 181.818C278.032 182.031 277.507 182.181 276.97 182.266C276.109 182.422 275.221 182.295 274.438 181.905C273.952 181.646 273.538 181.271 273.233 180.813C272.877 180.296 272.727 179.666 272.811 179.044C272.866 178.707 273.014 178.391 273.238 178.133C273.355 177.99 273.503 177.876 273.672 177.8C273.84 177.724 274.024 177.688 274.208 177.696C274.4 177.714 274.586 177.772 274.754 177.866C274.922 177.96 275.068 178.088 275.184 178.242C275.437 178.535 275.594 178.899 275.633 179.285C275.665 179.684 275.611 180.086 275.474 180.463C275.337 180.839 275.12 181.182 274.838 181.469C274.262 182.082 273.485 182.469 272.646 182.561C271.775 182.646 270.895 182.537 270.071 182.244C269.184 181.969 268.397 181.441 267.808 180.726C267.497 180.35 267.306 179.89 267.26 179.405C267.235 179.152 267.266 178.898 267.351 178.659C267.436 178.42 267.574 178.203 267.753 178.023C267.946 177.835 268.201 177.724 268.471 177.712C268.738 177.702 269.003 177.774 269.227 177.92C269.66 178.207 269.963 178.652 270.071 179.159C270.167 179.649 270.135 180.155 269.976 180.629C269.818 181.103 269.539 181.528 269.167 181.862C268.434 182.477 267.525 182.846 266.569 182.916C265.663 183.017 264.746 182.926 263.878 182.648C263.029 182.381 262.303 181.819 261.834 181.065C261.604 180.707 261.461 180.3 261.416 179.877C261.372 179.455 261.427 179.027 261.577 178.629C261.655 178.429 261.782 178.252 261.946 178.113C262.111 177.975 262.308 177.88 262.519 177.838C262.722 177.8 262.93 177.805 263.13 177.853C263.331 177.901 263.518 177.991 263.681 178.116C263.967 178.368 264.172 178.698 264.269 179.065C264.367 179.433 264.353 179.821 264.229 180.18C264.006 180.825 263.603 181.393 263.067 181.818C262.177 182.561 261.066 182.991 259.905 183.041C259.039 183.075 258.179 182.887 257.407 182.495C256.919 182.248 256.477 181.921 256.097 181.529C255.999 181.429 255.907 181.323 255.823 181.212C255.763 181.136 255.735 181.097 255.741 181.092C256.226 181.629 256.808 182.071 257.456 182.397C258.215 182.767 259.056 182.94 259.9 182.899C261.019 182.838 262.087 182.41 262.936 181.682C263.44 181.285 263.821 180.752 264.032 180.147C264.141 179.831 264.153 179.491 264.067 179.168C263.981 178.845 263.801 178.555 263.55 178.335C263.414 178.232 263.258 178.159 263.092 178.119C262.926 178.08 262.753 178.075 262.585 178.105C262.414 178.141 262.255 178.219 262.123 178.333C261.99 178.446 261.889 178.592 261.829 178.755C261.698 179.114 261.653 179.498 261.697 179.877C261.741 180.256 261.872 180.619 262.081 180.939C262.519 181.638 263.197 182.156 263.988 182.397C264.817 182.663 265.694 182.747 266.558 182.643C267.452 182.58 268.302 182.235 268.986 181.66C269.321 181.36 269.572 180.98 269.716 180.555C269.86 180.13 269.892 179.676 269.808 179.235C269.715 178.803 269.458 178.423 269.09 178.176C268.924 178.056 268.721 177.997 268.515 178.01C268.31 178.023 268.116 178.107 267.967 178.247C267.818 178.396 267.705 178.577 267.634 178.775C267.564 178.973 267.539 179.185 267.561 179.394C267.597 179.822 267.759 180.231 268.027 180.568C268.578 181.232 269.311 181.723 270.137 181.982C270.92 182.264 271.757 182.371 272.586 182.293C273.37 182.225 274.102 181.876 274.647 181.31C274.904 181.052 275.102 180.742 275.23 180.401C275.357 180.06 275.411 179.697 275.386 179.334C275.371 179.004 275.245 178.689 275.029 178.439C274.812 178.19 274.517 178.02 274.192 177.958C274.04 177.953 273.889 177.984 273.75 178.046C273.611 178.109 273.489 178.202 273.392 178.318C273.194 178.549 273.062 178.828 273.008 179.126C272.925 179.699 273.058 180.283 273.381 180.764C273.666 181.198 274.054 181.556 274.51 181.807C275.26 182.192 276.115 182.328 276.948 182.195C277.48 182.123 278.002 181.993 278.505 181.807C278.861 181.638 279.036 181.561 279.042 181.572Z" fill="#FAFAFA"/>
<path d="M257.763 166.514V177.155H278.746V166.514H257.763Z" fill="#EBEBEB"/>
<path d="M261.248 166.879C261.395 168.592 261.445 170.311 261.395 172.028C261.445 173.746 261.395 175.465 261.248 177.177C261.107 175.465 261.059 173.746 261.105 172.028C261.059 170.311 261.107 168.592 261.248 166.879Z" fill="#E0E0E0"/>
<path d="M262.842 166.743C262.983 168.434 263.03 170.131 262.984 171.826C263.031 173.524 262.983 175.223 262.842 176.915C262.695 175.223 262.645 173.524 262.695 171.826C262.645 170.13 262.695 168.433 262.842 166.743Z" fill="#E0E0E0"/>
<path d="M276.372 166.404C276.52 168.184 276.569 169.97 276.52 171.755C276.57 173.542 276.52 175.33 276.372 177.111C276.232 175.33 276.184 173.542 276.23 171.755C276.184 169.97 276.232 168.184 276.372 166.404Z" fill="#E0E0E0"/>
<path d="M274.504 166.53C274.651 168.264 274.701 170.005 274.651 171.744C274.701 173.486 274.652 175.228 274.504 176.964C274.36 175.228 274.312 173.486 274.362 171.744C274.312 170.005 274.36 168.264 274.504 166.53Z" fill="#E0E0E0"/>
<path d="M274.29 45.3508H132.83V138.842H274.29V45.3508Z" fill="#E0E0E0"/>
<path d="M19.8485 52.1813C19.7939 47.4628 21.1435 42.834 23.7269 38.879C26.3103 34.924 30.0117 31.8202 34.364 29.9593C38.7162 28.0984 43.5243 27.5639 48.1812 28.4232C52.8381 29.2824 57.1351 31.497 60.5299 34.7873C63.9248 38.0777 66.2652 42.2963 67.2558 46.9107C68.2464 51.5251 67.8428 56.3285 66.0959 60.7146C64.349 65.1007 61.3372 68.8729 57.4406 71.555C53.5439 74.2372 48.9371 75.7091 44.2016 75.7849C37.8333 75.8637 31.6935 73.4232 27.1283 68.9986C22.5632 64.5739 19.9452 58.5262 19.8485 52.1813ZM55.2712 51.6353C55.2233 49.3803 54.5061 47.1899 53.21 45.3406C51.9139 43.4913 50.0971 42.066 47.9888 41.2444C45.8805 40.4229 43.5752 40.2419 41.3638 40.7245C39.1524 41.207 37.134 42.3314 35.5633 43.9557C33.9926 45.58 32.94 47.6314 32.5383 49.8512C32.1366 52.0709 32.4038 54.3595 33.3062 56.4281C34.2086 58.4967 35.7058 60.2526 37.6088 61.4743C39.5118 62.6959 41.7354 63.3286 43.9989 63.2924C47.0483 63.2307 49.9484 61.9655 52.0621 59.7746C54.1757 57.5837 55.33 54.6464 55.2712 51.608V51.6353Z" fill="#F5F5F5"/>
<path d="M19.8486 52.1813C19.74 45.8388 22.1591 39.712 26.576 35.1434C30.9929 30.5748 37.0473 27.9369 43.4126 27.8078L43.6154 40.3221C40.5632 40.3706 37.6555 41.6252 35.5317 43.8098C33.408 45.9944 32.2422 48.9301 32.2909 51.971C32.3396 55.012 33.5988 57.9092 35.7914 60.0252C37.984 62.1412 40.9304 63.3026 43.9825 63.2541L44.1853 75.7739C37.8212 75.8498 31.6864 73.4094 27.1248 68.9872C22.5632 64.5651 19.9468 58.5218 19.8486 52.1813Z" fill="#E0E0E0"/>
<path d="M41.2754 25.8804C56.7399 25.6293 69.0699 37.5867 69.3165 53.0603L54.685 53.2951C54.5699 45.8968 48.92 41.2394 41.533 41.3595L41.2754 25.8804Z" fill="#EBEBEB"/>
<path d="M134.507 244.608C133.893 244.062 132.517 242.424 133.581 240.475C133.964 239.765 134.792 239.416 135.537 239.099C136.307 238.847 137.033 238.479 137.691 238.007C138.852 237.019 139.176 235.375 139.948 234.059C140.836 232.547 142.497 231.411 144.245 231.493C146.25 231.586 147.922 233.213 148.683 235.075C149.445 236.937 149.467 239.006 149.484 241.015C149.484 242.107 149.44 243.379 148.623 244.128C147.807 244.876 146.733 244.826 145.708 244.799L134.748 244.461" fill="#F5F5F5"/>
<path d="M155.473 214.578H126.648L131.838 245.427C131.948 246.067 132.238 246.663 132.673 247.146C133.108 247.629 133.672 247.979 134.298 248.157L134.403 248.184C134.485 248.184 134.572 248.233 134.66 248.25C134.853 248.288 135.049 248.312 135.246 248.321V248.348H135.389H148.239C148.475 248.347 148.71 248.323 148.941 248.277C149.691 248.162 150.382 247.804 150.909 247.26C151.435 246.716 151.768 246.014 151.856 245.263L154.361 224.007L154.476 223.161L155.468 214.747L155.473 214.578ZM150.031 234.234H147.078L147.374 225.285H150.799L150.031 234.234ZM151.089 225.285H153.922L152.892 234.234H150.349L151.089 225.285ZM142.639 244.16L142.48 236.385H146.738L146.48 244.166L142.639 244.16ZM138.03 236.38H142.173L142.354 244.16H138.644L138.03 236.38ZM138.354 244.16H134.885C134.55 242.058 134.123 239.328 133.657 236.38H137.745L138.354 244.16ZM137.866 234.234L137.164 225.285H141.932L142.14 234.234H137.866ZM142.409 234.234L142.201 225.285H147.089L146.787 234.234H142.409ZM142.151 223.134L141.959 214.846H147.439L147.165 223.134H142.151ZM141.866 223.134H137L136.353 214.846H141.674L141.866 223.134ZM136.715 223.134H131.564C131.383 221.993 131.208 220.906 131.054 219.934C130.506 216.582 130.314 215.321 130.199 214.846H136.068L136.715 223.134ZM136.879 225.285L137.581 234.234H133.323C133.175 233.328 133.033 232.41 132.885 231.504C132.556 229.391 132.221 227.278 131.904 225.301L136.879 225.285ZM133.043 234.234H130.26L128.753 225.285H131.624C132.068 228.053 132.539 231.133 133.033 234.234H133.043ZM133.378 236.38C133.805 239.072 134.222 241.725 134.605 244.16H131.931L130.621 236.38H133.378ZM146.754 244.16L147.017 236.38H149.862L149.193 244.16H146.754ZM147.456 223.134L147.735 214.846H151.708L150.996 223.134H147.456ZM129.92 214.846C130.035 215.446 130.561 218.706 131.262 223.134H128.369L126.977 214.846H129.92ZM151.686 244.16H149.462L150.152 236.385H152.629L151.686 244.16ZM154.163 223.134H151.248L151.96 214.846H155.128L154.163 223.134Z" fill="#E0E0E0"/>
<path d="M364.058 59.918H357.849V84.6191H364.058V59.918Z" fill="#E0E0E0"/>
<path d="M373.188 65.3071H366.979V84.6191H373.188V65.3071Z" fill="#E0E0E0"/>
<path d="M382.455 69.7188H376.246V84.6191H382.455V69.7188Z" fill="#E0E0E0"/>
<path d="M391.031 75.7738H384.822V84.6245H391.031V75.7738Z" fill="#E0E0E0"/>
<path d="M381.041 115.343C376.889 111.516 371.389 109.476 365.737 109.666C360.084 109.856 354.735 112.261 350.852 116.358C348.94 118.385 347.45 120.768 346.466 123.37C345.482 125.973 345.025 128.743 345.12 131.523C345.215 134.302 345.861 137.035 347.021 139.565C348.18 142.094 349.83 144.371 351.876 146.263C356.03 150.089 361.531 152.128 367.184 151.937C372.838 151.745 378.188 149.34 382.071 145.241C383.982 143.215 385.472 140.832 386.455 138.23C387.438 135.628 387.895 132.857 387.799 130.078C387.703 127.3 387.057 124.567 385.897 122.038C384.737 119.509 383.087 117.233 381.041 115.343ZM373.917 137.729C372.06 139.687 369.502 140.836 366.8 140.927C364.098 141.018 361.468 140.043 359.483 138.214C358.505 137.31 357.716 136.221 357.161 135.012C356.607 133.802 356.298 132.496 356.252 131.167C356.206 129.838 356.424 128.513 356.894 127.269C357.364 126.024 358.076 124.884 358.989 123.915C360.848 121.958 363.406 120.809 366.109 120.718C368.812 120.627 371.442 121.601 373.429 123.429C374.404 124.333 375.191 125.42 375.744 126.627C376.297 127.835 376.605 129.139 376.651 130.466C376.697 131.792 376.479 133.115 376.011 134.357C375.543 135.6 374.833 136.738 373.922 137.707L373.917 137.729Z" fill="#F5F5F5"/>
<path d="M350.851 116.358C354.735 112.261 360.084 109.856 365.737 109.666C371.389 109.476 376.889 111.516 381.041 115.343L373.435 123.396C371.447 121.568 368.817 120.595 366.115 120.686C363.412 120.776 360.854 121.925 358.995 123.882C358.081 124.851 357.369 125.991 356.9 127.236C356.43 128.48 356.212 129.805 356.258 131.134C356.303 132.463 356.612 133.77 357.167 134.979C357.721 136.189 358.51 137.277 359.488 138.182L351.876 146.252C349.832 144.36 348.183 142.084 347.025 139.556C345.866 137.027 345.221 134.295 345.126 131.517C345.031 128.739 345.487 125.97 346.47 123.368C347.453 120.767 348.942 118.384 350.851 116.358Z" fill="#EBEBEB"/>
<path d="M380.17 111.881C390.713 121.638 391.979 137.499 382.126 147.917L371.429 138.684C376.142 133.694 377.161 127.027 372.119 122.359L380.17 111.881Z" fill="#FAFAFA"/>
<path d="M149.396 150.336H92.4093C91.4318 150.336 90.6393 151.125 90.6393 152.099V165.558C90.6393 166.532 91.4318 167.322 92.4093 167.322H149.396C150.373 167.322 151.166 166.532 151.166 165.558V152.099C151.166 151.125 150.373 150.336 149.396 150.336Z" fill="#E0E0E0"/>
<path d="M100.52 163.047C102.557 163.047 104.208 161.394 104.208 159.356C104.208 157.317 102.557 155.665 100.52 155.665C98.4829 155.665 96.8317 157.317 96.8317 159.356C96.8317 161.394 98.4829 163.047 100.52 163.047Z" fill="#F5F5F5"/>
<path d="M102.591 158.1C102 158.873 101.336 159.588 100.607 160.235C100.443 160.398 100.279 160.551 100.12 160.704L100.021 160.802L99.9279 160.704C99.375 160.201 98.8788 159.639 98.4482 159.028C99.0579 159.461 99.6199 159.957 100.125 160.508H99.9279L100.41 160.033C101.073 159.32 101.803 158.673 102.591 158.1Z" fill="#E0E0E0"/>
<path d="M145.22 157.532C145.22 157.608 137.093 157.674 127.076 157.674C117.058 157.674 108.932 157.608 108.932 157.532C108.932 157.455 117.053 157.39 127.076 157.39C137.099 157.39 145.22 157.45 145.22 157.532Z" fill="#FAFAFA"/>
<path d="M145.368 160.606C145.368 160.688 137.241 160.748 127.224 160.748C117.206 160.748 109.079 160.688 109.079 160.606C109.079 160.524 117.201 160.464 127.224 160.464C137.247 160.464 145.368 160.524 145.368 160.606Z" fill="#FAFAFA"/>
<path d="M336.51 162.844L335.403 248.567H384.904V164.013L336.51 162.844Z" fill="#F5F5F5"/>
<path d="M363.182 163.489L362.743 248.567H384.904V164.013L363.182 163.489Z" fill="#E0E0E0"/>
<path d="M338.067 164.39V181.922H361.516V165.22L338.067 164.39Z" fill="#E0E0E0"/>
<path d="M346.15 169.211V171.804H353.323V168.976L346.15 169.211Z" fill="#F5F5F5"/>
<path d="M353.559 173.978H346.15V175.037H353.559V173.978Z" fill="#F5F5F5"/>
<path d="M338.067 225.831V243.363H361.516V226.661L338.067 225.831Z" fill="#E0E0E0"/>
<path d="M346.15 230.652V233.246H353.323V230.417L346.15 230.652Z" fill="#F5F5F5"/>
<path d="M353.559 235.419H346.15V236.478H353.559V235.419Z" fill="#F5F5F5"/>
<path d="M338.067 184.155V201.687H361.516V184.985L338.067 184.155Z" fill="#E0E0E0"/>
<path d="M346.15 188.976V191.57H353.323V188.741L346.15 188.976Z" fill="#F5F5F5"/>
<path d="M353.559 193.743H346.15V194.802H353.559V193.743Z" fill="#F5F5F5"/>
<path d="M361.209 205.149H337.76V222.681H361.209V205.149Z" fill="#E0E0E0"/>
<path d="M346.002 213.049V215.484H352.747V212.831L346.002 213.049Z" fill="#F5F5F5"/>
<path d="M352.967 217.532H346.002V218.526H352.967V217.532Z" fill="#F5F5F5"/>
<path d="M386.767 247.824C386.767 247.906 305.603 247.966 205.511 247.966C105.419 247.966 24.2325 247.906 24.2325 247.824C24.2325 247.742 105.38 247.682 205.511 247.682C305.641 247.682 386.767 247.748 386.767 247.824Z" fill="#263238"/>
<path d="M270.849 47.6931H124.352V143.434H270.849V47.6931Z" fill="#FAFAFA"/>
<path d="M270.849 143.434C270.849 142.511 270.805 106.088 270.734 47.6931L270.849 47.8077H124.363L124.506 47.6658C124.506 81.7143 124.506 114.114 124.506 143.407L124.374 143.276L270.871 143.407L124.374 143.538H124.243V143.407C124.243 114.114 124.243 81.7089 124.243 47.6658V47.5238H124.396L270.882 47.5566H270.997V47.6658C270.893 106.088 270.849 142.506 270.849 143.434Z" fill="#263238"/>
<path d="M169.124 100.562L183.531 100.764C183.421 108.408 176.955 114.649 169.124 114.649H169.036L169.124 100.562Z" fill="#231F20"/>
<path d="M192.951 120.005C192.847 120.014 192.742 120.014 192.638 120.005H191.762L188.539 120.043H188.512L188.485 120.011C187.197 118.4 185.542 116.314 183.733 114.043L179.897 109.178L179.974 109.211L175.733 109.173L174.538 109.2C174.398 109.215 174.256 109.215 174.116 109.2C174.256 109.179 174.397 109.17 174.538 109.173H175.722L179.963 109.134H180.007V109.167L183.843 114.021L188.556 120.027L188.49 119.994L191.712 120.033H192.589C192.708 120.008 192.83 119.999 192.951 120.005Z" fill="#263238"/>
<path d="M198.118 121.66C198.118 121.72 196.031 121.769 193.455 121.769C190.879 121.769 188.792 121.72 188.792 121.66C188.792 121.6 190.879 121.55 193.455 121.55C196.031 121.55 198.118 121.6 198.118 121.66Z" fill="#263238"/>
<path d="M198.118 123.396C198.118 123.456 196.031 123.505 193.455 123.505C190.879 123.505 188.792 123.456 188.792 123.396C188.792 123.336 190.879 123.287 193.455 123.287C196.031 123.287 198.118 123.32 198.118 123.396Z" fill="#263238"/>
<path d="M166.844 98.5202L166.641 112.607C158.816 112.498 152.432 106.175 152.432 98.5202C152.432 90.8653 158.936 84.4388 166.844 84.4388C174.752 84.4388 181.256 90.7943 181.256 98.5202H166.844Z" fill="#FEC807"/>
<path d="M161.216 93.9119C161.137 93.9401 161.054 93.9585 160.97 93.9665L160.252 94.0812L157.665 94.447H157.621L157.588 94.4143L154.136 91.0673C152.492 89.4293 150.985 87.9714 149.911 86.8958L148.651 85.6127C148.488 85.4623 148.34 85.2979 148.207 85.1213C148.388 85.2489 148.557 85.3934 148.711 85.5527L150.021 86.7812C151.117 87.8295 152.629 89.2873 154.289 90.9089L157.714 94.2832H157.638L160.241 93.9993L160.959 93.9338C161.042 93.9108 161.13 93.9034 161.216 93.9119Z" fill="#263238"/>
<path d="M144.557 84.5098C144.557 84.5699 142.469 84.619 139.893 84.619C137.318 84.619 135.235 84.5699 135.235 84.5098C135.235 84.4498 137.318 84.4007 139.893 84.4007C142.469 84.4007 144.557 84.4498 144.557 84.5098Z" fill="#263238"/>
<path d="M144.557 86.2298C144.557 86.2898 142.469 86.339 139.893 86.339C137.318 86.339 135.235 86.2898 135.235 86.2298C135.235 86.1697 137.318 86.1206 139.893 86.1206C142.469 86.1206 144.557 86.1697 144.557 86.2298Z" fill="#263238"/>
<path d="M217.255 70.6961L217.2 61.9601C214.523 62.0086 211.952 63.0077 209.95 64.7774C208.67 65.89 207.683 67.2975 207.075 68.8773C206.466 70.4571 206.255 72.1612 206.459 73.841C206.506 74.2685 206.575 74.6932 206.667 75.1132C206.665 75.124 206.665 75.1352 206.667 75.146L217.249 72.7709L217.255 70.6961Z" fill="#FEC807"/>
<g opacity="0.3">
<path opacity="0.3" d="M217.255 70.6961L217.2 61.9601C214.523 62.0086 211.952 63.0077 209.95 64.7774C208.67 65.89 207.683 67.2975 207.075 68.8773C206.466 70.4571 206.255 72.1612 206.459 73.841C206.506 74.2685 206.575 74.6932 206.667 75.1132C206.665 75.124 206.665 75.1352 206.667 75.146L217.249 72.7709L217.255 70.6961Z" fill="white"/>
</g>
<path d="M228.165 68.0043C227.393 66.3507 226.196 64.9293 224.696 63.8835C223.196 62.8376 221.446 62.2043 219.622 62.0474L219.288 62.0146H219.074C218.866 62.0146 218.652 62.0146 218.438 62.0146H218.378L218.438 70.7506V72.8036L229.064 75.0913C229.228 74.3473 229.307 73.5872 229.3 72.8254C229.284 71.1546 228.896 69.5081 228.165 68.0043Z" fill="#FEC807"/>
<g opacity="0.3">
<path opacity="0.3" d="M228.165 68.0043C227.393 66.3507 226.196 64.9293 224.696 63.8835C223.196 62.8376 221.446 62.2043 219.622 62.0474L219.288 62.0146H219.074C218.866 62.0146 218.652 62.0146 218.438 62.0146H218.378L218.438 70.7506V72.8036L229.064 75.0913C229.228 74.3473 229.307 73.5872 229.3 72.8254C229.284 71.1546 228.896 69.5081 228.165 68.0043Z" fill="black"/>
</g>
<path d="M217.825 73.8465L207.237 76.2216C207.78 78.6218 209.128 80.7657 211.06 82.2992C212.991 83.8327 215.389 84.6639 217.859 84.6556C220.328 84.6474 222.721 83.8001 224.642 82.2537C226.562 80.7073 227.896 78.5544 228.423 76.1506L217.836 73.8465" fill="#FEC807"/>
<path d="M259.023 72.274C259.023 72.3504 253.543 72.4159 246.803 72.4159C240.062 72.4159 234.577 72.3504 234.577 72.274C234.577 72.1975 240.057 72.1265 246.803 72.1265C253.549 72.1265 259.023 72.1921 259.023 72.274Z" fill="#263238"/>
<path d="M259.023 69.4949C259.023 69.5713 253.543 69.6368 246.803 69.6368C240.062 69.6368 234.577 69.5713 234.577 69.4949C234.577 69.4184 240.057 69.3529 246.803 69.3529C253.549 69.3529 259.023 69.4184 259.023 69.4949Z" fill="#263238"/>
<path d="M259.023 66.7212C259.023 66.7977 253.543 66.8632 246.803 66.8632C240.062 66.8632 234.577 66.7977 234.577 66.7212C234.577 66.6448 240.057 66.5793 246.803 66.5793C253.549 66.5793 259.023 66.6393 259.023 66.7212Z" fill="#263238"/>
<path d="M259.023 74.8566C259.023 74.933 253.543 74.9985 246.803 74.9985C240.062 74.9985 234.577 74.933 234.577 74.8566C234.577 74.7801 240.057 74.7091 246.803 74.7091C253.549 74.7091 259.023 74.802 259.023 74.8566Z" fill="#263238"/>
<path d="M251.455 77.6631C251.455 77.745 247.696 77.805 243.06 77.805C238.424 77.805 234.665 77.745 234.665 77.6631C234.665 77.5812 238.424 77.5211 243.06 77.5211C247.696 77.5211 251.455 77.5866 251.455 77.6631Z" fill="#263238"/>
<path d="M211.462 97.7613H208.947V125.777H211.462V97.7613Z" fill="#FEC807"/>
<path d="M216.323 107.273H213.808V125.771H216.323V107.273Z" fill="#FEC807"/>
<path d="M221.184 101.239H218.668V125.913H221.184V101.239Z" fill="#FEC807"/>
<path d="M226.045 98.8424H223.529V125.777H226.045V98.8424Z" fill="#FEC807"/>
<path d="M230.9 107.84H228.384V125.771H230.9V107.84Z" fill="#FEC807"/>
<path d="M235.76 111.357H233.245V125.771H235.76V111.357Z" fill="#FEC807"/>
<path d="M240.621 100.633H238.106V125.771H240.621V100.633Z" fill="#FEC807"/>
<path d="M245.482 105.165H242.967V125.771H245.482V105.165Z" fill="#FEC807"/>
<path d="M250.343 101.545H247.828V125.771H250.343V101.545Z" fill="#FEC807"/>
<path d="M255.204 109.265H252.688V125.771H255.204V109.265Z" fill="#FEC807"/>
<path d="M260.064 106.126H257.549V125.771H260.064V106.126Z" fill="#FEC807"/>
<path d="M261.095 127.726C261.095 127.78 249.154 127.83 234.423 127.83C219.693 127.83 207.752 127.78 207.752 127.726C207.752 127.671 219.693 127.622 234.423 127.622C249.154 127.622 261.095 127.666 261.095 127.726Z" fill="#263238"/>
<path d="M212.536 129.948C211.294 130.079 210.041 130.079 208.799 129.948C210.041 129.81 211.294 129.81 212.536 129.948Z" fill="#263238"/>
<path d="M218.734 130.041C217.249 130.179 215.754 130.179 214.268 130.041C215.754 129.902 217.249 129.902 218.734 130.041Z" fill="#263238"/>
<path d="M224.022 130.041C222.537 130.179 221.042 130.179 219.556 130.041C221.042 129.902 222.537 129.902 224.022 130.041Z" fill="#263238"/>
<path d="M229.305 130.041C227.82 130.179 226.324 130.179 224.839 130.041C226.324 129.902 227.82 129.902 229.305 130.041Z" fill="#263238"/>
<path d="M234.593 130.041C233.108 130.179 231.613 130.179 230.127 130.041C231.613 129.902 233.108 129.902 234.593 130.041Z" fill="#263238"/>
<path d="M239.876 130.041C238.39 130.179 236.895 130.179 235.41 130.041C236.895 129.902 238.39 129.902 239.876 130.041Z" fill="#263238"/>
<path d="M245.164 130.041C243.679 130.179 242.183 130.179 240.698 130.041C242.183 129.902 243.679 129.902 245.164 130.041Z" fill="#263238"/>
<path d="M250.436 130.041C248.95 130.179 247.455 130.179 245.97 130.041C247.455 129.902 248.95 129.902 250.436 130.041Z" fill="#263238"/>
<path d="M255.735 130.041C254.25 130.179 252.754 130.179 251.269 130.041C252.754 129.902 254.25 129.902 255.735 130.041Z" fill="#263238"/>
<path d="M261.023 130.041C259.538 130.179 258.043 130.179 256.557 130.041C258.043 129.902 259.538 129.902 261.023 130.041Z" fill="#263238"/>
<g opacity="0.3">
<path opacity="0.3" d="M216.323 107.273H213.808V125.771H216.323V107.273Z" fill="white"/>
</g>
<g opacity="0.3">
<path opacity="0.3" d="M226.045 98.8424H223.529V125.777H226.045V98.8424Z" fill="white"/>
</g>
<g opacity="0.3">
<path opacity="0.3" d="M235.76 111.357H233.245V125.771H235.76V111.357Z" fill="white"/>
</g>
<g opacity="0.3">
<path opacity="0.3" d="M245.482 105.165H242.967V125.771H245.482V105.165Z" fill="white"/>
</g>
<g opacity="0.3">
<path opacity="0.3" d="M255.204 109.265H252.688V125.771H255.204V109.265Z" fill="white"/>
</g>
<path d="M142.151 65.6892C142.152 66.168 142.011 66.6364 141.744 67.035C141.478 67.4336 141.099 67.7445 140.655 67.9283C140.211 68.112 139.723 68.1604 139.251 68.0672C138.78 67.9741 138.347 67.7436 138.007 67.405C137.667 67.0664 137.436 66.6349 137.342 66.1652C137.249 65.6955 137.297 65.2087 137.482 64.7665C137.666 64.3243 137.978 63.9466 138.378 63.6812C138.778 63.4159 139.248 63.2748 139.729 63.2759C140.371 63.2759 140.988 63.5301 141.442 63.9827C141.896 64.4353 142.151 65.0491 142.151 65.6892Z" fill="#FEC807"/>
<path d="M183.816 63.7837C183.816 63.8656 175.645 63.9256 165.567 63.9256C155.489 63.9256 147.319 63.8656 147.319 63.7837C147.319 63.7018 155.484 63.6417 165.567 63.6417C175.65 63.6417 183.816 63.7072 183.816 63.7837Z" fill="#FEC807"/>
<path d="M161.967 66.7047C161.787 66.7478 161.603 66.7661 161.419 66.7593L159.879 66.8085C158.575 66.8085 156.777 66.8467 154.793 66.8467C152.81 66.8467 151.007 66.8467 149.708 66.8085L148.163 66.7593C147.978 66.7656 147.794 66.7472 147.615 66.7047C147.795 66.6655 147.978 66.6472 148.163 66.6501C148.53 66.6501 149.056 66.6174 149.708 66.6065C151.007 66.6065 152.804 66.5628 154.793 66.5628C156.783 66.5628 158.575 66.5628 159.879 66.6065C160.531 66.6065 161.057 66.6338 161.419 66.6501C161.603 66.6467 161.787 66.665 161.967 66.7047Z" fill="#FEC807"/>
<path d="M121.365 56.3636H44.6945V143.549H121.365V56.3636Z" fill="#FAFAFA"/>
<path d="M121.371 143.543C121.371 143.543 121.371 143.401 121.371 143.134C121.371 142.866 121.371 142.451 121.371 141.922C121.371 140.83 121.371 139.274 121.371 137.215C121.371 133.098 121.371 127.076 121.338 119.427C121.338 104.139 121.3 82.3586 121.278 56.3636L121.404 56.4892H44.7387L44.8812 56.3472C44.8812 88.4902 44.8812 118.466 44.8812 143.527L44.7606 143.407L100.284 143.489L115.836 143.522H119.935H121.349H119.957H115.886L100.361 143.554L44.6729 143.614H44.5524V143.489C44.5524 118.427 44.5524 88.452 44.5524 56.309V56.238H44.7058H121.371H121.497V56.3636C121.47 82.3914 121.448 104.199 121.431 119.508C121.431 127.152 121.404 133.158 121.398 137.264C121.398 139.312 121.398 140.884 121.398 141.949C121.398 142.495 121.398 142.872 121.398 143.145C121.398 143.418 121.371 143.543 121.371 143.543Z" fill="#263238"/>
<path d="M114.779 100.879C114.779 100.934 113.929 100.453 112.313 99.9453C110.027 99.2352 107.611 99.0485 105.243 99.3993C103.619 99.6492 102.045 100.154 100.58 100.895C98.9144 101.784 97.3725 102.885 95.9931 104.171C94.4916 105.493 92.9955 106.994 91.2748 108.381C89.5194 109.876 87.4645 110.982 85.2468 111.624C84.1016 111.926 82.9077 111.998 81.7341 111.837C80.6037 111.666 79.5049 111.33 78.4735 110.838C76.5882 109.861 74.7587 108.78 72.9935 107.6C71.4244 106.557 69.6905 105.783 67.8643 105.312C66.268 104.924 64.6189 104.797 62.9816 104.936C60.5969 105.141 58.2911 105.888 56.2412 107.12C54.7945 107.999 54.115 108.659 54.0492 108.616C54.1909 108.436 54.3548 108.274 54.5369 108.135C55.0259 107.697 55.55 107.298 56.1042 106.945C57.8372 105.829 59.7774 105.072 61.8097 104.717C63.8421 104.363 65.9252 104.418 67.9355 104.881C69.8128 105.351 71.5982 106.13 73.2182 107.185C74.9665 108.343 76.7776 109.404 78.6434 110.363C80.6256 111.376 82.9075 111.643 85.0715 111.116C87.2339 110.507 89.2431 109.45 90.9679 108.015C92.6667 106.656 94.1628 105.165 95.6917 103.838C97.1087 102.535 98.6914 101.422 100.399 100.529C102.247 99.6154 104.26 99.0762 106.319 98.9431C108.378 98.81 110.443 99.0857 112.395 99.7542C113.018 99.9633 113.622 100.223 114.203 100.529C114.406 100.627 114.598 100.744 114.779 100.879Z" fill="#FEC807"/>
<path d="M72.314 112.591H65.7983V130.156H72.314V112.591Z" fill="#FEC807"/>
<path d="M99.9771 112.591H93.4614V130.156H99.9771V112.591Z" fill="#FEC807"/>
<path d="M109.194 102.271H102.679V130.15H109.194V102.271Z" fill="#FEC807"/>
<path d="M63.8803 124.624H57.3646V130.538H63.8803V124.624Z" fill="#FEC807"/>
<path d="M81.5423 120.519H75.0211V130.15H81.5423V120.519Z" fill="#FEC807"/>
<path d="M90.7542 118.307H84.2385V130.15H90.7542V118.307Z" fill="#FEC807"/>
<path d="M72.5826 132.225C72.5826 132.367 71.0043 132.487 69.0589 132.487C67.1135 132.487 65.5353 132.367 65.5353 132.225C65.5353 132.083 67.1135 131.963 69.0589 131.963C71.0043 131.963 72.5826 132.077 72.5826 132.225Z" fill="#263238"/>
<path d="M64.4722 132.225C64.4722 132.367 62.894 132.487 60.9486 132.487C59.0032 132.487 57.4249 132.367 57.4249 132.225C57.4249 132.083 59.0032 131.963 60.9486 131.963C62.894 131.963 64.4722 132.077 64.4722 132.225Z" fill="#263238"/>
<path d="M110.482 132.225C110.482 132.367 108.701 132.487 106.504 132.487C104.306 132.487 102.52 132.367 102.52 132.225C102.52 132.083 104.301 131.963 106.504 131.963C108.707 131.963 110.482 132.077 110.482 132.225Z" fill="#263238"/>
<path d="M96.8206 132.487C99.0179 132.487 100.799 132.37 100.799 132.225C100.799 132.08 99.0179 131.963 96.8206 131.963C94.6234 131.963 92.8422 132.08 92.8422 132.225C92.8422 132.37 94.6234 132.487 96.8206 132.487Z" fill="#263238"/>
<path d="M90.7597 132.225C90.7597 132.367 89.1814 132.487 87.236 132.487C85.2906 132.487 83.7124 132.367 83.7124 132.225C83.7124 132.083 85.2906 131.963 87.236 131.963C89.1814 131.963 90.7597 132.077 90.7597 132.225Z" fill="#263238"/>
<path d="M81.23 132.225C81.23 132.367 79.6573 132.487 77.7119 132.487C75.7665 132.487 74.1882 132.367 74.1882 132.225C74.1882 132.083 75.7665 131.963 77.7119 131.963C79.6573 131.963 81.23 132.077 81.23 132.225Z" fill="#263238"/>
<path d="M110.482 69.0745H57.2112V91.1165H110.482V69.0745Z" fill="#E0E0E0"/>
<path d="M68.2808 76.036C68.2819 76.5265 68.1369 77.0063 67.8642 77.4146C67.5914 77.823 67.2033 78.1415 66.7487 78.33C66.2942 78.5185 65.7938 78.5683 65.3108 78.4733C64.8279 78.3783 64.3841 78.1426 64.0356 77.7962C63.6871 77.4497 63.4496 77.008 63.3531 76.527C63.2567 76.046 63.3056 75.5473 63.4938 75.0941C63.6819 74.6408 64.0008 74.2533 64.4101 73.9807C64.8193 73.7081 65.3006 73.5626 65.7928 73.5626C66.4517 73.5626 67.0837 73.823 67.5501 74.2867C68.0166 74.7504 68.2793 75.3795 68.2808 76.036Z" fill="#263238"/>
<path d="M88.069 74.3269H70.7632V75.2824H88.069V74.3269Z" fill="#263238"/>
<path d="M104.427 76.5055H70.7632V77.4609H104.427V76.5055Z" fill="white"/>
<path d="M68.2808 83.6472C68.2819 84.1377 68.1369 84.6175 67.8642 85.0259C67.5914 85.4343 67.2033 85.7528 66.7487 85.9413C66.2942 86.1297 65.7938 86.1796 65.3108 86.0846C64.8279 85.9896 64.3841 85.7539 64.0356 85.4074C63.6871 85.061 63.4496 84.6193 63.3531 84.1383C63.2567 83.6573 63.3056 83.1586 63.4938 82.7054C63.6819 82.2521 64.0008 81.8646 64.4101 81.592C64.8193 81.3194 65.3006 81.1739 65.7928 81.1739C66.1193 81.1731 66.4427 81.2366 66.7445 81.3606C67.0463 81.4845 67.3207 81.6666 67.5517 81.8964C67.7828 82.1261 67.9662 82.399 68.0913 82.6995C68.2164 82.9999 68.2808 83.322 68.2808 83.6472Z" fill="#FEC807"/>
<path d="M79.5969 81.9382H70.7632V82.8937H79.5969V81.9382Z" fill="#FEC807"/>
<path d="M104.427 84.1113H70.7632V85.0668H104.427V84.1113Z" fill="white"/>
<path d="M362.228 40.7097H278.033V136.451H362.228V40.7097Z" fill="#FAFAFA"/>
<path d="M362.228 136.451C362.228 136.451 362.228 136.292 362.228 135.998C362.228 135.703 362.228 135.25 362.228 134.665C362.228 133.492 362.228 131.761 362.228 129.5C362.228 124.979 362.228 118.367 362.195 109.97C362.195 93.1803 362.157 69.2601 362.135 40.7097L362.261 40.8353H278.072L278.22 40.6934C278.22 75.9923 278.22 108.911 278.192 136.434L278.072 136.314L339.146 136.374L356.216 136.407H360.716H362.272C362.272 136.407 361.757 136.407 360.743 136.407H356.266L339.212 136.5L278.061 136.56H277.94V136.44C277.94 108.916 277.94 75.9977 277.94 40.6988V40.5678H278.094H362.283H362.409V40.6934C362.409 69.2765 362.36 93.224 362.343 110.035C362.343 118.427 362.343 125.029 362.31 129.544C362.31 131.788 362.31 133.513 362.31 134.682V135.998C362.228 136.303 362.228 136.451 362.228 136.451Z" fill="#263238"/>
<path d="M352.978 48.3646H284.774V102.883H352.978V48.3646Z" fill="#E0E0E0"/>
<path d="M291.772 93.1913H289.536V93.8356H291.772V93.1913Z" fill="#263238"/>
<path d="M297.465 96.6256H294.605V97.2699H297.465V96.6256Z" fill="#263238"/>
<path d="M307.428 96.6256H304.568V97.2699H307.428V96.6256Z" fill="#263238"/>
<path d="M317.396 96.6256H314.536V97.2699H317.396V96.6256Z" fill="#263238"/>
<path d="M327.359 96.6256H324.498V97.2699H327.359V96.6256Z" fill="#263238"/>
<path d="M337.327 96.6256H334.466V97.2699H337.327V96.6256Z" fill="#263238"/>
<path d="M347.29 96.6256H344.429V97.2699H347.29V96.6256Z" fill="#263238"/>
<path d="M291.772 84.6027H289.536V85.247H291.772V84.6027Z" fill="#263238"/>
<path d="M291.772 68.452H289.536V69.0962H291.772V68.452Z" fill="#263238"/>
<path d="M291.772 60.333H289.536V60.9773H291.772V60.333Z" fill="#263238"/>
<path d="M291.887 76.5273H289.651V77.1716H291.887V76.5273Z" fill="#263238"/>
<path d="M347.213 93.8301C347.133 93.8372 347.052 93.8372 346.972 93.8301H346.27H343.53L333.573 93.8793L300.693 93.9175H292.802V93.7755C292.802 82.8555 292.84 73.1968 292.851 66.2844C292.851 62.8446 292.884 60.0819 292.895 58.1654C292.895 57.2263 292.895 56.4946 292.895 55.9814C292.895 55.7412 292.895 55.5555 292.895 55.4354C292.887 55.372 292.887 55.3077 292.895 55.2443C292.903 55.3077 292.903 55.372 292.895 55.4354C292.895 55.5774 292.895 55.763 292.895 55.9814C292.895 56.4946 292.895 57.2263 292.895 58.1654C292.895 60.0819 292.922 62.8446 292.939 66.2844C292.939 73.1968 292.939 82.8337 292.988 93.7755L292.846 93.639H300.633L333.513 93.6827L343.47 93.7264L346.21 93.7537H346.911L347.213 93.8301Z" fill="#263238"/>
<path d="M347.843 76.8495C347.843 76.926 336.039 76.9915 321.479 76.9915C306.918 76.9915 295.109 76.926 295.109 76.8495C295.109 76.7731 306.913 76.7076 321.479 76.7076C336.045 76.7076 347.843 76.7731 347.843 76.8495Z" fill="#263238"/>
<path d="M347.843 68.796C347.843 68.8779 336.039 68.938 321.479 68.938C306.918 68.938 295.109 68.8779 295.109 68.796C295.109 68.7141 306.913 68.6541 321.479 68.6541C336.045 68.6541 347.843 68.6923 347.843 68.796Z" fill="#263238"/>
<path d="M347.843 60.6497C347.843 60.7316 336.039 60.7916 321.479 60.7916C306.918 60.7916 295.109 60.7316 295.109 60.6497C295.109 60.5678 306.913 60.5077 321.479 60.5077C336.045 60.5077 347.843 60.5732 347.843 60.6497Z" fill="#263238"/>
<path d="M347.843 84.9248C347.843 85.0067 336.039 85.0668 321.479 85.0668C306.918 85.0668 295.109 85.0067 295.109 84.9248C295.109 84.8429 306.913 84.7829 321.479 84.7829C336.045 84.7829 347.843 84.8484 347.843 84.9248Z" fill="#263238"/>
<path d="M295.651 92.0938V84.9248L300.134 77.9906L303.181 80.3166L309.423 70.6524L313.105 73.235L318.229 64.3188L322.394 67.6985L328.636 55.8721L335.376 69.0908L340.818 62.4787L347.224 60.6496V92.0938H295.651Z" fill="#231F20"/>
<path d="M347.843 58.1053C347.843 58.1053 347.805 58.1053 347.728 58.1053H347.394H346.095L341.163 58.1436L341.229 58.1108L335.968 64.974L335.935 65.0177H335.924H322.739L322.854 64.9522C321.117 67.8296 319.248 70.9582 317.314 74.1468L311.867 83.1613L311.763 83.336L311.637 83.1722C309.039 79.6014 306.628 76.2981 304.513 73.3824H304.688L298.139 83.538L296.315 86.3281L295.827 87.0543C295.717 87.2181 295.651 87.3 295.651 87.3C295.651 87.3 295.695 87.2071 295.799 87.0379L296.254 86.2899L298.03 83.467L304.469 73.306L304.562 73.1586L304.661 73.3005L311.812 83.0794H311.582L317.018 74.0595L322.569 64.8703L322.608 64.8048H322.69H335.875L335.787 64.8484L341.097 58.0289V57.9961H341.136L346.068 58.0344H347.366H347.701L347.843 58.1053Z" fill="#FEC807"/>
<path d="M306.732 75.6811C306.736 75.7823 306.71 75.8826 306.657 75.9689C306.604 76.0552 306.526 76.1237 306.433 76.1655C306.34 76.2073 306.237 76.2205 306.137 76.2035C306.037 76.1864 305.944 76.1398 305.871 76.0698C305.797 75.9997 305.746 75.9093 305.725 75.8103C305.703 75.7112 305.712 75.608 305.75 75.514C305.788 75.4199 305.853 75.3393 305.937 75.2825C306.021 75.2256 306.121 75.1952 306.222 75.1951C306.288 75.1937 306.353 75.2051 306.414 75.2287C306.475 75.2524 306.531 75.2878 306.578 75.3329C306.626 75.378 306.664 75.432 306.69 75.4917C306.716 75.5515 306.731 75.6158 306.732 75.6811Z" fill="#FEC807"/>
<path d="M321.939 67.0652C321.944 67.1668 321.919 67.2678 321.866 67.3549C321.814 67.442 321.736 67.5114 321.643 67.5539C321.55 67.5964 321.446 67.6101 321.346 67.5932C321.245 67.5764 321.152 67.5298 321.078 67.4594C321.004 67.389 320.953 67.2982 320.932 67.1986C320.91 67.0991 320.919 66.9955 320.958 66.9012C320.996 66.8069 321.062 66.7263 321.148 66.6698C321.233 66.6134 321.333 66.5837 321.435 66.5847C321.565 66.5832 321.691 66.6327 321.785 66.7225C321.88 66.8123 321.935 66.9353 321.939 67.0652Z" fill="#FEC807"/>
<path d="M333.765 64.974C333.769 65.0752 333.743 65.1754 333.69 65.2618C333.637 65.3481 333.559 65.4166 333.466 65.4584C333.373 65.5002 333.27 65.5134 333.17 65.4963C333.07 65.4793 332.977 65.4327 332.903 65.3627C332.83 65.2926 332.779 65.2022 332.758 65.1032C332.736 65.0041 332.745 64.9009 332.783 64.8069C332.821 64.7128 332.886 64.6322 332.97 64.5754C333.054 64.5185 333.154 64.4881 333.255 64.488C333.321 64.4866 333.386 64.498 333.447 64.5216C333.508 64.5453 333.564 64.5807 333.611 64.6258C333.658 64.6709 333.696 64.7249 333.723 64.7846C333.749 64.8444 333.763 64.9087 333.765 64.974Z" fill="#FEC807"/>
<path d="M349.903 110.985C349.903 111.067 335.513 111.127 317.763 111.127C300.014 111.127 285.618 111.067 285.618 110.985C285.618 110.904 300.008 110.843 317.763 110.843C335.518 110.843 349.903 110.909 349.903 110.985Z" fill="#263238"/>
<path d="M349.903 114.447C349.903 114.529 335.513 114.589 317.763 114.589C300.014 114.589 285.618 114.529 285.618 114.447C285.618 114.365 300.008 114.305 317.763 114.305C335.518 114.305 349.903 114.371 349.903 114.447Z" fill="#263238"/>
<path d="M349.903 117.936C349.903 118.012 335.513 118.078 317.763 118.078C300.014 118.078 285.618 118.012 285.618 117.936C285.618 117.86 300.008 117.794 317.763 117.794C335.518 117.794 349.903 117.832 349.903 117.936Z" fill="#263238"/>
<path d="M349.903 121.376C349.903 121.452 335.513 121.518 317.763 121.518C300.014 121.518 285.618 121.452 285.618 121.376C285.618 121.299 300.008 121.234 317.763 121.234C335.518 121.234 349.903 121.294 349.903 121.376Z" fill="#263238"/>
<path d="M221.348 182.102H188.693V183.685H221.348V182.102Z" fill="#263238"/>
<path d="M183.629 183.685L177.508 160.819H203.001L208.547 183.685H183.629Z" fill="#263238"/>
<path d="M207.018 181.955H184.243L178.944 161.873H201.834L207.018 181.955Z" fill="#F5F5F5"/>
<path d="M179.322 163.32H202.212L201.823 161.873H178.944L179.322 163.32Z" fill="#EBEBEB"/>
<path d="M181.794 162.599C181.794 162.649 181.808 162.697 181.836 162.738C181.864 162.78 181.903 162.812 181.949 162.831C181.995 162.85 182.046 162.855 182.095 162.845C182.144 162.836 182.189 162.812 182.224 162.776C182.259 162.741 182.283 162.697 182.293 162.648C182.303 162.599 182.298 162.549 182.279 162.503C182.259 162.457 182.227 162.418 182.186 162.39C182.144 162.362 182.096 162.348 182.046 162.348C181.979 162.348 181.915 162.374 181.867 162.421C181.82 162.468 181.794 162.532 181.794 162.599Z" fill="#FAFAFA"/>
<path d="M180.933 162.599C180.933 162.649 180.948 162.697 180.976 162.738C181.003 162.78 181.043 162.812 181.089 162.831C181.135 162.85 181.186 162.855 181.234 162.845C181.283 162.836 181.328 162.812 181.364 162.776C181.399 162.741 181.423 162.697 181.433 162.648C181.442 162.599 181.437 162.549 181.418 162.503C181.399 162.457 181.367 162.418 181.325 162.39C181.284 162.362 181.235 162.348 181.185 162.348C181.118 162.348 181.054 162.374 181.007 162.421C180.96 162.468 180.933 162.532 180.933 162.599Z" fill="#FAFAFA"/>
<path d="M180.073 162.599C180.074 162.665 180.101 162.727 180.148 162.773C180.196 162.819 180.259 162.845 180.325 162.845C180.385 162.836 180.439 162.806 180.479 162.76C180.518 162.715 180.54 162.656 180.54 162.596C180.54 162.536 180.518 162.478 180.479 162.432C180.439 162.387 180.385 162.357 180.325 162.348C180.292 162.348 180.259 162.354 180.228 162.367C180.198 162.379 180.17 162.398 180.147 162.421C180.123 162.445 180.105 162.472 180.092 162.503C180.079 162.533 180.073 162.566 180.073 162.599Z" fill="#FAFAFA"/>
<path d="M196.529 172.116L199.039 174.977C199.507 174.654 199.89 174.225 200.156 173.724C200.422 173.223 200.563 172.666 200.568 172.099C200.568 170.101 198.727 168.463 196.507 168.474C194.288 168.485 192.463 170.112 192.474 172.132L196.529 172.116Z" fill="#FEC807"/>
<path d="M196.211 172.574C196.472 172.791 196.712 173.03 196.929 173.29C197.379 173.77 198.025 174.469 198.781 175.321L198.869 175.419L198.76 175.495C198.151 175.922 197.442 176.184 196.702 176.257C195.961 176.329 195.215 176.21 194.534 175.91C193.837 175.613 193.235 175.132 192.792 174.518C192.404 173.965 192.181 173.314 192.151 172.64V172.536H192.277C193.477 172.536 194.469 172.536 195.159 172.536C195.513 172.524 195.866 172.54 196.217 172.585C195.854 172.641 195.488 172.67 195.121 172.673C194.43 172.705 193.477 172.738 192.282 172.771L192.403 172.64C192.449 173.263 192.665 173.861 193.027 174.371C193.447 174.942 194.016 175.387 194.671 175.659C195.31 175.938 196.008 176.053 196.702 175.993C197.396 175.933 198.064 175.7 198.644 175.315V175.49C197.916 174.644 197.318 173.928 196.902 173.421C196.651 173.156 196.42 172.873 196.211 172.574Z" fill="#263238"/>
<path d="M194.573 169.959C194.574 170.019 194.599 170.077 194.642 170.119C194.685 170.162 194.742 170.187 194.803 170.188C194.863 170.187 194.92 170.162 194.962 170.119C195.004 170.076 195.028 170.019 195.028 169.959C195.028 169.929 195.022 169.9 195.011 169.873C194.999 169.846 194.983 169.821 194.962 169.801C194.941 169.78 194.916 169.763 194.889 169.752C194.862 169.741 194.833 169.735 194.803 169.735C194.773 169.734 194.743 169.74 194.715 169.75C194.687 169.761 194.662 169.778 194.641 169.799C194.619 169.819 194.602 169.844 194.59 169.872C194.579 169.899 194.573 169.929 194.573 169.959Z" fill="#263238"/>
<path d="M190.063 168.326C190.959 168.179 191.868 168.128 192.775 168.173H193.192L193.236 168.212C193.82 168.736 194.346 169.322 194.803 169.959C194.16 169.508 193.566 168.99 193.033 168.414L193.137 168.452H192.775C191.869 168.503 190.96 168.461 190.063 168.326Z" fill="#263238"/>
<path d="M184.939 171.182C184.824 170.838 184.736 170.486 184.676 170.128C184.523 169.435 184.309 168.425 184.057 167.185L184.029 167.049H184.172L189.838 167C189.805 167 190.107 167.223 189.981 167.12V167.18V167.245V167.382L190.03 167.649C190.063 167.83 190.101 168.004 190.134 168.195C190.2 168.545 190.26 168.889 190.326 169.227C190.452 169.899 190.567 170.543 190.682 171.155L190.71 171.308H190.556C188.852 171.308 187.422 171.28 186.424 171.264L185.279 171.231C185.148 171.236 185.018 171.225 184.89 171.198C185.035 171.174 185.181 171.164 185.328 171.166L186.501 171.127C187.504 171.1 188.901 171.067 190.556 171.051L190.43 171.204L190.101 169.26C190.035 168.927 189.97 168.583 189.904 168.234C189.871 168.059 189.833 167.879 189.8 167.688L189.751 167.42L189.723 167.284V167.218V167.163C189.597 167.06 189.893 167.305 189.86 167.284H184.172L184.287 167.147C184.501 168.343 184.665 169.331 184.78 170.052C184.895 170.773 184.95 171.166 184.939 171.182Z" fill="#263238"/>
<path d="M194.239 174.507C194.247 174.561 194.275 174.61 194.316 174.646C194.358 174.682 194.411 174.701 194.466 174.701C194.521 174.701 194.574 174.682 194.616 174.646C194.657 174.61 194.685 174.561 194.693 174.507C194.693 174.446 194.669 174.388 194.626 174.345C194.583 174.302 194.524 174.278 194.463 174.278C194.433 174.278 194.404 174.284 194.376 174.295C194.348 174.307 194.323 174.324 194.302 174.345C194.281 174.367 194.265 174.392 194.254 174.42C194.243 174.448 194.238 174.477 194.239 174.507Z" fill="#263238"/>
<path d="M190.348 174.524C191.024 174.377 191.718 174.325 192.408 174.371C193.096 174.319 193.788 174.365 194.463 174.507C193.788 174.65 193.097 174.7 192.408 174.655C191.719 174.704 191.026 174.66 190.348 174.524Z" fill="#263238"/>
<path d="M184.955 176.303C184.854 176.059 184.771 175.807 184.709 175.55C184.561 175.048 184.347 174.305 184.09 173.366L184.057 173.235H184.194C185.739 173.208 187.794 173.186 190.041 173.18L190.178 173.284V173.328V173.377V173.475L190.227 173.672L190.326 174.054C190.392 174.311 190.457 174.562 190.518 174.807C190.644 175.299 190.764 175.779 190.879 176.238L190.923 176.402H190.753C189.022 176.402 187.542 176.402 186.512 176.358L185.317 176.325C185.179 176.329 185.042 176.318 184.906 176.293C185.058 176.269 185.212 176.256 185.366 176.254L186.589 176.216C187.624 176.183 189.065 176.156 190.753 176.14L190.622 176.303C190.501 175.845 190.375 175.37 190.249 174.878L190.052 174.125L189.953 173.737L189.904 173.546L189.877 173.448V173.399V173.36C189.844 173.36 190.14 173.562 190.014 173.47C187.767 173.47 185.712 173.47 184.172 173.47L184.27 173.333C184.49 174.229 184.654 174.971 184.769 175.479C184.853 175.749 184.915 176.024 184.955 176.303Z" fill="#263238"/>
<path d="M185.388 168.392C186.023 168.252 186.674 168.202 187.323 168.244C187.973 168.192 188.627 168.238 189.263 168.381C188.626 168.521 187.973 168.571 187.323 168.528C186.675 168.58 186.023 168.534 185.388 168.392Z" fill="#263238"/>
<path d="M185.432 169.025C186.073 168.886 186.729 168.836 187.383 168.878C188.036 168.829 188.693 168.873 189.334 169.009C188.041 169.202 186.726 169.202 185.432 169.009V169.025Z" fill="#263238"/>
<path d="M185.547 169.637C186.164 169.49 186.8 169.439 187.432 169.484C188.062 169.439 188.695 169.485 189.312 169.62C188.697 169.767 188.063 169.819 187.432 169.773C186.801 169.818 186.166 169.772 185.547 169.637Z" fill="#263238"/>
<path d="M185.504 174.469C186.108 174.328 186.731 174.279 187.35 174.321C187.969 174.27 188.593 174.316 189.197 174.458C188.592 174.598 187.97 174.647 187.35 174.605C186.731 174.657 186.108 174.611 185.504 174.469Z" fill="#263238"/>
<path d="M185.728 175.168C186.772 174.979 187.841 174.979 188.885 175.168C187.841 175.357 186.772 175.357 185.728 175.168Z" fill="#263238"/>
<path d="M150.021 183.614V186.612H151.993V247.333H156.038V186.612H177.503V247.333H181.547V186.612H274.669V247.316H278.718V186.612H280.466V183.614H150.021Z" fill="#263238"/>
<path d="M237.722 206.235C239.473 206.388 241.233 206.388 242.983 206.235C241.233 206.09 239.473 206.09 237.722 206.235Z" fill="#263238"/>
<path d="M199.411 206.858C199.49 206.858 199.554 206.826 199.554 206.787C199.554 206.747 199.49 206.716 199.411 206.716C199.333 206.716 199.269 206.747 199.269 206.787C199.269 206.826 199.333 206.858 199.411 206.858Z" fill="#231F20"/>
<path d="M225.184 152.809L210.081 137.521L209.753 135.883C209.692 135.583 209.627 135.244 209.566 134.857C209.501 134.41 209.511 133.957 209.594 133.513C209.673 132.959 209.83 132.419 210.059 131.908C210.312 131.466 209.906 130.931 209.484 131.116C209.062 131.302 208.333 132.498 208.174 134.152C208.015 135.807 206.602 133.606 206.075 132.82C205.549 132.034 203.796 129.67 203.429 129.642C202.881 129.599 202.76 130.188 203.303 130.953C203.845 131.717 205.33 134.174 204.914 134.431C204.501 134.359 204.076 134.421 203.7 134.607C203.325 134.792 203.019 135.092 202.826 135.463C202.442 136.189 202.02 137.226 202.366 137.701C203.113 138.6 203.919 139.45 204.777 140.246L205.281 140.677C205.281 140.677 218.351 159.547 221.2 160.164C222.97 160.54 250.359 162.806 250.359 162.806L252.425 155.288L225.184 152.809Z" fill="#B78876"/>
<path d="M202.212 137.363L203.609 138.7C203.765 138.864 203.951 138.996 204.157 139.088C204.259 139.131 204.37 139.145 204.479 139.128C204.587 139.11 204.689 139.062 204.771 138.99C204.829 138.912 204.866 138.822 204.88 138.727C204.895 138.632 204.885 138.535 204.853 138.444C204.776 138.262 204.667 138.095 204.53 137.952L203.171 136.314" fill="#B78876"/>
<path d="M203.171 136.309C203.204 136.282 203.462 136.538 203.862 136.981C204.086 137.232 204.316 137.488 204.552 137.761C204.704 137.917 204.834 138.091 204.941 138.28C205.006 138.4 205.037 138.535 205.03 138.67C205.023 138.806 204.979 138.937 204.903 139.05C204.808 139.154 204.684 139.227 204.547 139.258C204.41 139.289 204.266 139.278 204.136 139.225C203.927 139.138 203.74 139.008 203.588 138.842L202.859 138.1C202.448 137.674 202.207 137.396 202.234 137.363C202.516 137.523 202.772 137.724 202.996 137.958L203.768 138.651C203.898 138.786 204.055 138.893 204.229 138.963C204.304 138.993 204.387 139 204.466 138.985C204.546 138.969 204.62 138.931 204.678 138.875C204.72 138.803 204.742 138.721 204.742 138.638C204.742 138.554 204.72 138.472 204.678 138.4C204.584 138.23 204.472 138.071 204.344 137.925C204.119 137.647 203.905 137.379 203.697 137.106C203.482 136.868 203.305 136.6 203.171 136.309Z" fill="#AA6550"/>
<path d="M203.226 136.391L204.623 137.729C204.778 137.892 204.964 138.022 205.171 138.111C205.271 138.158 205.384 138.174 205.493 138.157C205.603 138.139 205.705 138.089 205.785 138.012C205.843 137.935 205.881 137.845 205.896 137.75C205.91 137.655 205.9 137.557 205.867 137.466C205.789 137.284 205.68 137.115 205.544 136.97L204.185 135.332" fill="#B78876"/>
<path d="M204.163 135.332C204.196 135.332 204.453 135.566 204.853 136.009L205.544 136.784C205.696 136.939 205.826 137.114 205.933 137.303C205.998 137.423 206.029 137.559 206.022 137.696C206.015 137.832 205.971 137.964 205.895 138.078C205.8 138.182 205.676 138.255 205.539 138.286C205.401 138.317 205.258 138.306 205.127 138.253C204.919 138.167 204.732 138.036 204.579 137.871L203.856 137.128C203.614 136.913 203.403 136.665 203.231 136.391C203.512 136.55 203.769 136.749 203.993 136.981L204.766 137.679C204.895 137.815 205.052 137.921 205.226 137.991C205.302 138.021 205.384 138.028 205.464 138.013C205.543 137.997 205.617 137.959 205.675 137.903C205.717 137.83 205.739 137.747 205.739 137.663C205.739 137.579 205.717 137.496 205.675 137.423C205.581 137.253 205.467 137.096 205.336 136.953L204.695 136.134C204.476 135.897 204.296 135.626 204.163 135.332Z" fill="#AA6550"/>
<path d="M204.316 135.594L205.714 136.931C205.866 137.098 206.053 137.228 206.262 137.314C206.355 137.366 206.462 137.387 206.568 137.374C206.674 137.36 206.773 137.314 206.85 137.24C206.927 137.167 206.979 137.071 206.997 136.966C207.016 136.861 207 136.754 206.952 136.658C206.876 136.475 206.766 136.306 206.629 136.162C206.179 135.616 205.725 135.07 205.275 134.524" fill="#B78876"/>
<path d="M205.253 134.534C205.513 134.726 205.745 134.952 205.944 135.206L206.634 135.987C206.784 136.143 206.913 136.317 207.018 136.505C207.086 136.625 207.118 136.761 207.112 136.899C207.105 137.036 207.059 137.168 206.98 137.281C206.887 137.385 206.763 137.458 206.627 137.489C206.49 137.521 206.347 137.509 206.218 137.456C206.009 137.369 205.822 137.239 205.67 137.073L204.952 136.331C204.71 136.117 204.501 135.869 204.333 135.594C204.614 135.752 204.871 135.951 205.094 136.183L205.867 136.882C205.996 137.016 206.151 137.122 206.322 137.193C206.397 137.224 206.48 137.232 206.56 137.217C206.64 137.201 206.713 137.163 206.771 137.106C206.816 137.034 206.84 136.951 206.84 136.866C206.84 136.781 206.816 136.698 206.771 136.626C206.677 136.457 206.565 136.3 206.437 136.156L205.796 135.337C205.573 135.1 205.39 134.829 205.253 134.534Z" fill="#AA6550"/>
<path d="M206.525 137.909C206.525 137.86 206.87 137.794 207.374 137.947L207.215 138.083C207.138 137.771 207.125 137.446 207.177 137.128C207.252 136.698 207.441 136.297 207.725 135.965C207.939 135.714 208.119 135.615 208.141 135.643C207.837 136.112 207.615 136.629 207.484 137.172C207.44 137.458 207.44 137.748 207.484 138.034L207.511 138.253L207.325 138.171C206.854 137.985 206.519 137.963 206.525 137.909Z" fill="#AA6550"/>
<path d="M244.956 129.883L245.022 150.833L236.802 151.22L236.473 146.202C236.473 146.202 232.516 146.798 231.689 143.833C231.141 141.938 231.294 127.305 231.294 127.305L244.956 129.883Z" fill="#B78876"/>
<path d="M229.294 129.369C229.902 130.625 232.796 132.913 232.796 132.913L234.106 136.402C235.24 135.517 236.763 135.566 237.054 137.554C237.262 138.995 235.47 139.285 235.47 139.285C236.511 141.054 237.218 142.484 238.758 144.166C240.402 145.99 241.323 146.17 243.109 146.202H245.077C245.077 146.202 249.099 142.85 248.304 134.027C247.51 125.203 239.525 127.764 237.624 125.58C234.544 121.982 227.267 125.192 229.294 129.369Z" fill="#263238"/>
<path d="M247.833 141.414C247.51 141.456 247.181 141.441 246.863 141.37C245.986 141.185 245.175 140.771 244.512 140.169C243.564 139.254 242.764 138.199 242.139 137.041C241.372 135.79 240.534 134.338 239.125 133.366C237.717 132.394 236.024 132.225 234.582 131.93C233.269 131.753 232.014 131.277 230.916 130.538C230.189 130 229.67 129.229 229.448 128.354C229.362 128.039 229.349 127.708 229.409 127.387C229.385 127.708 229.413 128.031 229.491 128.343C229.728 129.195 230.248 129.942 230.966 130.461C232.06 131.181 233.304 131.642 234.604 131.81C236.04 132.099 237.728 132.285 239.191 133.257C240.654 134.229 241.465 135.719 242.227 136.97C242.844 138.122 243.633 139.175 244.567 140.093C245.216 140.69 246.009 141.109 246.868 141.31C247.103 141.361 247.341 141.39 247.581 141.398L247.833 141.414Z" fill="#231F20"/>
<path d="M248.299 134.229L247.877 134.098C247.473 133.97 247.059 133.879 246.638 133.825C245.975 133.731 245.301 133.882 244.742 134.251C244.571 134.364 244.425 134.511 244.311 134.681C244.197 134.852 244.118 135.043 244.079 135.244C244.035 135.468 244.047 135.699 244.114 135.917C244.181 136.135 244.301 136.334 244.463 136.495C244.648 136.653 244.882 136.745 245.126 136.757C245.383 136.76 245.636 136.69 245.855 136.555C246.331 136.272 246.685 135.822 246.847 135.293C246.996 134.85 247.044 134.379 246.986 133.915C246.928 133.45 246.766 133.005 246.511 132.612C246.257 132.218 245.917 131.887 245.517 131.643C245.117 131.398 244.667 131.246 244.2 131.198C243.512 131.159 242.822 131.248 242.167 131.46C241.477 131.682 240.772 131.852 240.057 131.968C239.315 132.067 238.563 132.067 237.821 131.968C237.075 131.88 236.347 131.679 235.662 131.373C235.32 131.234 235.011 131.024 234.757 130.756C234.503 130.489 234.309 130.171 234.188 129.822C234.088 129.478 234.082 129.113 234.17 128.765C234.257 128.417 234.436 128.098 234.687 127.84C234.944 127.609 235.265 127.459 235.609 127.41C235.952 127.36 236.302 127.413 236.615 127.562C236.923 127.696 237.174 127.931 237.328 128.228C237.471 128.519 237.525 128.846 237.481 129.167C237.438 129.47 237.33 129.761 237.164 130.019C236.999 130.277 236.78 130.497 236.522 130.663C236.028 130.965 235.458 131.122 234.878 131.116C234.357 131.121 233.839 131.042 233.344 130.882C232.49 130.608 231.715 130.132 231.086 129.495C230.609 129.021 230.219 128.466 229.935 127.857C229.756 127.472 229.618 127.069 229.524 126.656C229.475 126.372 229.459 126.219 229.459 126.219C229.459 126.219 229.492 126.366 229.546 126.65C229.649 127.058 229.792 127.455 229.974 127.835C230.257 128.446 230.649 129.001 231.13 129.473C231.753 130.1 232.521 130.565 233.366 130.827C233.854 130.986 234.365 131.063 234.878 131.056C235.432 131.055 235.974 130.902 236.446 130.614C236.691 130.455 236.9 130.244 237.057 129.998C237.214 129.751 237.316 129.473 237.355 129.184C237.405 128.88 237.353 128.569 237.207 128.297C237.062 128.026 236.831 127.81 236.55 127.682C236.256 127.543 235.927 127.495 235.605 127.542C235.283 127.59 234.982 127.732 234.741 127.95C234.505 128.192 234.337 128.492 234.254 128.82C234.171 129.148 234.177 129.492 234.27 129.817C234.389 130.149 234.576 130.453 234.821 130.708C235.065 130.963 235.361 131.164 235.689 131.297C236.37 131.594 237.093 131.783 237.832 131.859C238.559 131.956 239.297 131.956 240.024 131.859C240.734 131.747 241.433 131.581 242.117 131.362C242.788 131.142 243.495 131.051 244.2 131.095C244.683 131.144 245.149 131.301 245.563 131.554C245.977 131.807 246.329 132.15 246.592 132.557C246.855 132.964 247.023 133.424 247.083 133.905C247.143 134.385 247.094 134.873 246.94 135.332C246.766 135.88 246.395 136.344 245.899 136.637C245.666 136.777 245.398 136.849 245.126 136.844C244.861 136.836 244.607 136.735 244.408 136.56C244.238 136.389 244.113 136.179 244.043 135.949C243.974 135.719 243.961 135.475 244.008 135.239C244.094 134.815 244.344 134.442 244.704 134.201C245.279 133.834 245.968 133.687 246.644 133.786C247.066 133.842 247.481 133.94 247.882 134.081C248.156 134.169 248.299 134.229 248.299 134.229Z" fill="#231F20"/>
<path d="M237.876 242.217L235.202 238.793L241.608 233.754L245.581 238.722L245.203 239.061C243.515 240.546 236.5 246.514 235.037 247.087C233.404 247.726 237.876 242.217 237.876 242.217Z" fill="#FEC807"/>
<g opacity="0.4">
<path opacity="0.4" d="M235.766 245.001C235.766 245.001 234.292 247.054 234.78 247.185C235.267 247.316 242.578 241.55 245.581 238.728L245.455 238.591L236.983 245.383C236.983 245.383 236.15 244.723 235.766 245.001Z" fill="white"/>
</g>
<path d="M245.553 238.504C245.524 238.54 245.491 238.573 245.455 238.602L245.153 238.87L244.03 239.836C243.071 240.644 241.739 241.747 240.238 242.932C238.736 244.117 237.355 245.16 236.347 245.897L235.141 246.77L234.813 247L234.692 247.071L234.802 246.983L235.119 246.737L236.303 245.842C237.3 245.089 238.676 244.04 240.177 242.855C241.679 241.671 243.016 240.579 243.981 239.781L245.126 238.842L245.438 238.586L245.553 238.504Z" fill="#263238"/>
<path d="M237.065 245.476C236.861 245.324 236.64 245.196 236.407 245.094C236.165 245.021 235.915 244.977 235.662 244.963C235.917 244.88 236.194 244.894 236.44 245.001C236.7 245.077 236.923 245.246 237.065 245.476Z" fill="#263238"/>
<path d="M238.199 243.03C238.199 243.057 238.013 243.03 237.799 242.948C237.585 242.866 237.426 242.795 237.437 242.768C237.448 242.741 237.624 242.768 237.832 242.855C237.966 242.886 238.091 242.946 238.199 243.03Z" fill="#263238"/>
<path d="M238.501 242.348C238.501 242.375 238.342 242.391 238.155 242.38C237.969 242.369 237.816 242.337 237.816 242.309C237.816 242.282 237.969 242.266 238.161 242.282C238.278 242.277 238.394 242.299 238.501 242.348Z" fill="#263238"/>
<path d="M238.347 241.49C238.347 241.49 238.232 241.649 238.046 241.796C237.859 241.944 237.701 242.047 237.684 242.025C237.668 242.004 237.805 241.867 237.986 241.72C238.166 241.572 238.331 241.469 238.347 241.49Z" fill="#263238"/>
<path d="M238.122 240.977C238.055 241.129 237.957 241.266 237.835 241.378C237.712 241.491 237.568 241.578 237.41 241.632C237.41 241.605 237.574 241.485 237.772 241.305C237.969 241.125 238.101 240.961 238.122 240.977Z" fill="#263238"/>
<path d="M237.536 242.648C237.42 242.78 237.281 242.889 237.125 242.97C236.961 243.067 236.789 243.149 236.61 243.216C236.503 243.262 236.391 243.295 236.276 243.314C236.205 243.321 236.133 243.304 236.073 243.265C236.042 243.24 236.02 243.206 236.008 243.168C235.996 243.13 235.996 243.09 236.007 243.052C236.103 242.854 236.264 242.695 236.464 242.601C236.663 242.508 236.889 242.486 237.103 242.539C237.231 242.568 237.35 242.624 237.454 242.703C237.525 242.763 237.558 242.801 237.553 242.806C237.411 242.711 237.253 242.642 237.087 242.604C236.903 242.565 236.712 242.582 236.539 242.653C236.334 242.727 236.166 242.878 236.073 243.074C236.073 243.172 236.133 243.232 236.243 243.216C236.347 243.196 236.45 243.169 236.55 243.134C236.726 243.069 236.898 242.995 237.065 242.91C237.372 242.757 237.525 242.632 237.536 242.648Z" fill="#263238"/>
<path d="M237.448 242.752C237.448 242.752 237.301 242.703 237.174 242.506C237.102 242.387 237.059 242.252 237.048 242.113C237.037 242.025 237.047 241.937 237.078 241.854C237.108 241.771 237.158 241.697 237.224 241.638C237.273 241.613 237.329 241.608 237.382 241.624C237.434 241.641 237.478 241.677 237.503 241.725C237.546 241.799 237.572 241.881 237.58 241.965C237.596 242.098 237.596 242.232 237.58 242.364C237.575 242.489 237.539 242.611 237.476 242.719C237.476 242.719 237.476 242.577 237.509 242.359C237.524 242.232 237.524 242.103 237.509 241.976C237.509 241.845 237.41 241.66 237.295 241.725C237.245 241.775 237.206 241.836 237.184 241.904C237.161 241.971 237.154 242.043 237.164 242.113C237.168 242.237 237.2 242.358 237.257 242.468C237.312 242.568 237.376 242.663 237.448 242.752Z" fill="#263238"/>
<path d="M244.035 236.86C244.035 236.86 243.838 236.986 243.581 237.248C243.237 237.587 242.996 238.016 242.885 238.485C242.775 238.955 242.799 239.445 242.956 239.902C243.076 240.251 243.213 240.448 243.197 240.448C243.18 240.448 243.153 240.409 243.093 240.322C243.014 240.195 242.946 240.062 242.89 239.923C242.713 239.456 242.677 238.948 242.786 238.46C242.9 237.972 243.16 237.531 243.531 237.193C243.64 237.092 243.76 237.002 243.887 236.926C243.933 236.896 243.983 236.874 244.035 236.86Z" fill="#263238"/>
<path d="M241.268 234.725C241.657 235.127 242.023 235.55 242.364 235.992C242.945 236.713 243.4 237.308 243.383 237.324C242.993 236.925 242.627 236.501 242.287 236.058C241.918 235.637 241.578 235.192 241.268 234.725Z" fill="#263238"/>
<path d="M241.915 240.513C241.667 240.828 241.378 241.107 241.054 241.343C240.753 241.605 240.42 241.827 240.062 242.004C240.062 242.004 240.484 241.676 240.994 241.261C241.504 240.846 241.898 240.491 241.915 240.513Z" fill="#263238"/>
<path d="M243.169 239.519C243.197 239.519 243.208 239.634 243.24 239.765C243.273 239.896 243.317 240 243.295 240.016C243.273 240.033 243.18 239.94 243.142 239.787C243.104 239.634 243.148 239.514 243.169 239.519Z" fill="#263238"/>
<path d="M243.18 238.564C243.208 238.564 243.219 238.662 243.18 238.782C243.142 238.902 243.137 238.995 243.109 238.995C243.082 238.995 243.071 238.891 243.082 238.771C243.093 238.651 243.153 238.558 243.18 238.564Z" fill="#263238"/>
<path d="M243.64 237.761C243.64 237.761 243.569 237.854 243.504 237.958C243.438 238.062 243.405 238.171 243.378 238.165C243.35 238.16 243.334 238.034 243.416 237.903C243.498 237.772 243.635 237.734 243.64 237.761Z" fill="#263238"/>
<path d="M244.024 237.253C244.024 237.253 244.024 237.33 244.024 237.389C244.024 237.449 243.936 237.493 243.915 237.482C243.893 237.471 243.915 237.406 243.915 237.34C243.915 237.275 244.002 237.243 244.024 237.253Z" fill="#263238"/>
<g opacity="0.3">
<path opacity="0.3" d="M243.893 236.697L237.41 241.632L236.813 240.852L243.624 236.254L243.893 236.697Z" fill="black"/>
</g>
<path d="M208.415 245.656V241.316L216.581 241.283L216.63 247.638L216.12 247.671C213.868 247.808 204.662 248.19 203.155 247.742C201.483 247.24 208.415 245.656 208.415 245.656Z" fill="#FEC807"/>
<g opacity="0.4">
<path opacity="0.4" d="M205.029 246.552C205.029 246.552 202.596 247.256 202.902 247.644C203.209 248.031 212.531 248.004 216.641 247.644V247.464L205.769 247.6C205.769 247.6 205.5 246.568 205.029 246.552Z" fill="white"/>
</g>
<path d="M216.756 247.453H216.613H216.208L214.728 247.524C213.473 247.573 211.742 247.622 209.829 247.633C207.917 247.644 206.18 247.633 204.925 247.573L203.445 247.518H203.04H202.897H203.445H204.93C206.18 247.518 207.917 247.556 209.829 247.551C211.742 247.546 213.473 247.502 214.723 247.469L216.208 247.431H216.756V247.453Z" fill="#263238"/>
<path d="M205.758 247.72C205.689 247.476 205.594 247.239 205.473 247.016C205.327 246.815 205.158 246.631 204.968 246.47C205.223 246.562 205.433 246.745 205.56 246.983C205.713 247.197 205.783 247.459 205.758 247.72Z" fill="#263238"/>
<path d="M208.158 246.492C208.158 246.492 208.021 246.366 207.9 246.181C207.78 245.995 207.703 245.831 207.725 245.82C207.747 245.809 207.862 245.94 207.982 246.131C208.103 246.322 208.18 246.481 208.158 246.492Z" fill="#263238"/>
<path d="M208.821 246.142C208.821 246.142 208.673 246.077 208.53 245.951C208.388 245.826 208.289 245.711 208.306 245.689C208.322 245.667 208.454 245.755 208.596 245.88C208.739 246.006 208.837 246.12 208.821 246.142Z" fill="#263238"/>
<path d="M209.232 245.372C209.098 245.424 208.953 245.443 208.81 245.427C208.666 245.446 208.52 245.431 208.383 245.383C208.518 245.335 208.662 245.316 208.805 245.329C208.949 245.313 209.094 245.328 209.232 245.372Z" fill="#263238"/>
<path d="M209.374 244.832C209.232 244.923 209.067 244.971 208.898 244.968C208.733 244.998 208.563 244.977 208.41 244.908C208.569 244.88 208.731 244.868 208.892 244.87C209.051 244.844 209.213 244.831 209.374 244.832Z" fill="#263238"/>
<path d="M207.878 245.787C207.697 245.819 207.512 245.819 207.33 245.787C207.144 245.765 206.961 245.725 206.782 245.667C206.672 245.638 206.565 245.596 206.465 245.542C206.403 245.504 206.356 245.446 206.333 245.378C206.325 245.339 206.328 245.299 206.343 245.262C206.357 245.225 206.383 245.193 206.415 245.17C206.614 245.071 206.842 245.044 207.059 245.094C207.276 245.144 207.469 245.267 207.604 245.443C207.686 245.546 207.743 245.666 207.774 245.793C207.785 245.84 207.785 245.888 207.774 245.935C207.721 245.773 207.639 245.621 207.533 245.487C207.414 245.351 207.258 245.25 207.084 245.198C206.982 245.164 206.874 245.15 206.766 245.159C206.659 245.167 206.555 245.197 206.459 245.247C206.377 245.307 206.41 245.405 206.503 245.46C206.596 245.512 206.696 245.552 206.799 245.58C206.977 245.643 207.16 245.69 207.347 245.722C207.692 245.771 207.878 245.771 207.878 245.787Z" fill="#263238"/>
<path d="M207.741 245.809C207.68 245.7 207.659 245.572 207.681 245.449C207.697 245.312 207.745 245.181 207.824 245.067C207.869 244.991 207.931 244.926 208.007 244.88C208.082 244.833 208.168 244.806 208.256 244.799C208.283 244.804 208.309 244.814 208.332 244.828C208.355 244.843 208.375 244.862 208.39 244.885C208.405 244.907 208.416 244.932 208.421 244.959C208.427 244.985 208.426 245.013 208.421 245.039C208.409 245.123 208.379 245.203 208.333 245.274C208.265 245.39 208.182 245.496 208.087 245.591C207.922 245.749 207.796 245.815 207.785 245.804C207.774 245.793 207.889 245.711 208.037 245.542C208.121 245.445 208.194 245.341 208.256 245.231C208.328 245.116 208.372 244.919 208.256 244.897C208.141 244.876 207.993 245.012 207.917 245.116C207.842 245.218 207.792 245.336 207.769 245.46C207.753 245.576 207.744 245.692 207.741 245.809Z" fill="#263238"/>
<path d="M216.575 245.225C216.575 245.225 216.345 245.225 215.972 245.225C215.494 245.286 215.042 245.475 214.663 245.771C214.287 246.075 214.004 246.478 213.846 246.934C213.784 247.126 213.733 247.321 213.693 247.518C213.682 247.464 213.682 247.409 213.693 247.354C213.703 247.204 213.73 247.056 213.775 246.912C213.925 246.436 214.211 246.013 214.597 245.695C214.988 245.38 215.465 245.189 215.967 245.149C216.116 245.131 216.267 245.131 216.416 245.149C216.474 245.162 216.529 245.188 216.575 245.225Z" fill="#263238"/>
<path d="M215.715 241.845C215.776 242.4 215.803 242.958 215.797 243.516C215.827 244.073 215.827 244.63 215.797 245.187C215.736 244.632 215.71 244.074 215.72 243.516C215.687 242.96 215.685 242.402 215.715 241.845Z" fill="#263238"/>
<path d="M212.624 246.792C212.234 246.882 211.835 246.922 211.435 246.912C211.035 246.932 210.633 246.902 210.24 246.825C210.24 246.797 210.788 246.825 211.435 246.825C212.082 246.825 212.624 246.792 212.624 246.792Z" fill="#263238"/>
<path d="M214.267 246.792C214.267 246.792 214.229 246.907 214.174 247.027C214.12 247.147 214.087 247.256 214.06 247.256C214.032 247.256 214.021 247.125 214.06 246.989C214.098 246.852 214.229 246.792 214.267 246.792Z" fill="#263238"/>
<path d="M214.848 246.039C214.848 246.039 214.815 246.142 214.733 246.224C214.651 246.306 214.564 246.366 214.542 246.35C214.52 246.333 214.575 246.241 214.662 246.159C214.75 246.077 214.815 246.017 214.848 246.039Z" fill="#263238"/>
<path d="M215.709 245.7C215.709 245.7 215.594 245.7 215.474 245.771C215.353 245.842 215.271 245.88 215.249 245.858C215.227 245.837 215.293 245.727 215.446 245.678C215.6 245.629 215.72 245.667 215.709 245.7Z" fill="#263238"/>
<path d="M216.323 245.525C216.323 245.553 216.284 245.596 216.219 245.624C216.153 245.651 216.087 245.651 216.076 245.624C216.066 245.596 216.115 245.558 216.18 245.531C216.246 245.503 216.312 245.503 216.323 245.525Z" fill="#263238"/>
<g opacity="0.3">
<path opacity="0.3" d="M216.641 244.897L208.41 244.908L208.415 243.926L216.608 243.876L216.641 244.897Z" fill="black"/>
</g>
<path d="M228.565 170.702L225.277 180.53C224.395 183.178 222.072 183.631 219.249 183.631H201.116V179.569L217.731 177.204L221.688 167.125L228.565 170.702Z" fill="#B78876"/>
<path d="M199.105 178.7L197.664 178.023C197.664 178.023 196.107 175.026 195.751 175.146C195.395 175.266 195.285 176.145 195.91 177.526L193.997 176.98C193.997 176.98 189.838 178.891 190.025 179.164C190.08 179.295 190.165 179.412 190.272 179.506C190.378 179.6 190.505 179.669 190.642 179.708C190.779 179.747 190.923 179.756 191.064 179.733C191.204 179.709 191.338 179.655 191.455 179.574C192.359 179.11 193.543 178.569 193.543 178.569L195.784 179.208L192.896 179.574L190.156 182.036C190.395 182.214 190.688 182.306 190.986 182.298C191.284 182.29 191.57 182.182 191.8 181.993L198.924 183.489L201.116 183.609V179.547L199.105 178.7Z" fill="#B78876"/>
<path d="M191.838 181.976C191.871 181.976 192.003 181.791 192.255 181.512C192.404 181.354 192.578 181.221 192.77 181.119C193.009 181.006 193.267 180.937 193.532 180.917C194.248 180.873 194.957 180.752 195.647 180.557C194.93 180.533 194.212 180.58 193.504 180.699C193.211 180.722 192.925 180.806 192.666 180.944C192.453 181.062 192.266 181.222 192.118 181.414C191.982 181.577 191.886 181.77 191.838 181.976Z" fill="#AA6550"/>
<path d="M192.945 182.26C192.973 182.26 192.995 182.113 193.192 182.069C193.389 182.026 193.713 181.998 194.047 181.966C194.462 181.958 194.877 181.916 195.285 181.84C194.881 181.699 194.447 181.666 194.025 181.742C193.723 181.768 193.425 181.83 193.137 181.927C193.087 181.946 193.043 181.975 193.006 182.012C192.969 182.05 192.941 182.096 192.923 182.146C192.896 182.222 192.929 182.26 192.945 182.26Z" fill="#AA6550"/>
<path d="M230.105 168.561L228.708 173.284L219.83 169.26C220.154 168.272 221.622 163.871 224.428 156.888C225.196 154.972 226.445 153.286 228.057 151.991C229.668 150.696 231.587 149.836 233.629 149.495C236.435 148.99 239.277 148.712 242.128 148.665C247.11 148.72 254.436 151.821 255.417 156.68C256.174 160.393 255.445 166.945 255.445 174.906L254.82 190.134L229.311 190.991L230.105 168.561Z" fill="#FEC807"/>
<g opacity="0.3">
<path opacity="0.3" d="M255.417 171.4C252.316 172.034 249.126 171.4 245.964 171.209C244.046 171.095 241.92 170.887 240.402 172.061C239.202 172.995 238.72 174.562 238.369 176.036C237.048 181.671 236.807 185.444 236.511 191.22L251.855 192.148L255.417 171.4Z" fill="black"/>
</g>
<path d="M229.453 152.056C229.453 152.056 229.711 152.094 230.133 152.258C230.721 152.512 231.229 152.921 231.601 153.442C232.144 154.222 232.449 155.142 232.478 156.091C232.514 157.258 232.423 158.426 232.21 159.574C231.848 161.675 231.372 163.754 230.785 165.804C230.577 166.568 230.401 167.196 230.27 167.677C230.194 167.903 230.139 168.135 230.105 168.37C230.208 168.154 230.291 167.93 230.352 167.699C230.494 167.262 230.697 166.634 230.933 165.848C231.572 163.803 232.072 161.718 232.429 159.607C232.644 158.442 232.729 157.257 232.681 156.074C232.638 155.091 232.307 154.141 231.727 153.344C231.328 152.812 230.784 152.405 230.16 152.17C229.99 152.115 229.816 152.075 229.639 152.05C229.519 152.05 229.453 152.045 229.453 152.056Z" fill="#263238"/>
<path d="M220.11 168.075C220.506 168.347 220.924 168.586 221.359 168.791C222.148 169.2 223.25 169.741 224.488 170.297C225.727 170.854 226.867 171.318 227.7 171.635C228.139 171.83 228.596 171.984 229.064 172.094C228.642 171.864 228.204 171.663 227.754 171.493C226.943 171.138 225.814 170.652 224.581 170.095C223.348 169.539 222.236 169.003 221.43 168.649C221.005 168.425 220.564 168.233 220.11 168.075Z" fill="#263238"/>
<path d="M216.043 192.148C213.954 193.284 212.395 195.191 211.702 197.46C211.008 199.728 211.235 202.177 212.333 204.28L234.544 242.26L244.786 236.096L227.546 201.807L240.024 193.677" fill="#263238"/>
<path d="M243.076 190.265L212.597 191.357C210.218 191.441 207.967 192.451 206.328 194.17C204.689 195.889 203.791 198.18 203.829 200.551L205.095 243.92H217.912L217.485 202.915L243.076 202.244V190.265Z" fill="#263238"/>
<path d="M217.485 204.352C217.511 204.485 217.523 204.62 217.523 204.756C217.523 205.047 217.54 205.429 217.572 205.902C217.611 206.901 217.649 208.348 217.688 210.139C217.764 213.715 217.814 218.657 217.841 224.111C217.868 229.566 217.896 234.485 217.912 238.083C217.912 239.852 217.912 241.288 217.94 242.32C217.94 242.801 217.94 243.183 217.94 243.472C217.952 243.607 217.952 243.742 217.94 243.876C217.914 243.743 217.901 243.608 217.901 243.472C217.901 243.183 217.874 242.801 217.852 242.32C217.814 241.321 217.775 239.874 217.737 238.089C217.66 234.513 217.611 229.571 217.583 224.111C217.556 218.651 217.529 213.737 217.512 210.139C217.512 208.376 217.512 206.94 217.512 205.908V204.75C217.49 204.618 217.481 204.485 217.485 204.352Z" fill="#231F20"/>
<path d="M256.278 162.746H247.055C245.273 162.746 243.564 163.452 242.304 164.707C241.044 165.962 240.336 167.665 240.336 169.44V201.474H221.94C220.706 201.474 219.523 201.962 218.65 202.832C217.778 203.701 217.288 204.88 217.288 206.11H259.347C260.336 206.069 261.271 205.648 261.957 204.936C262.642 204.223 263.024 203.274 263.024 202.288V169.44C263.024 168.559 262.849 167.686 262.51 166.872C262.17 166.058 261.673 165.319 261.046 164.697C260.419 164.075 259.675 163.583 258.857 163.248C258.039 162.913 257.162 162.743 256.278 162.746Z" fill="#231F20"/>
<path d="M243.016 163.8C243.092 163.8 243.158 173.219 243.158 184.837C243.158 196.456 243.092 205.875 243.016 205.875C242.939 205.875 242.874 196.456 242.874 184.837C242.874 173.219 242.939 163.8 243.016 163.8Z" fill="#263238"/>
<path d="M241.849 239.771V206.148H238.851V239.771C237.021 243.363 232.719 245.777 227.48 247.786H254.201C248.792 245.591 243.86 243.904 241.849 239.771Z" fill="#231F20"/>
<path d="M73.032 235.413L73.1197 235.217L73.3882 234.643C73.712 233.905 73.9759 233.142 74.1773 232.361C74.8066 229.453 74.7823 226.441 74.1061 223.543C73.6863 221.535 73.1372 219.557 72.4621 217.619C71.7661 215.517 70.9606 213.289 70.2701 210.876C69.527 208.36 69.1686 205.746 69.207 203.123C69.3056 200.393 70.1221 197.663 71.0154 194.933C71.9086 192.203 72.8347 189.538 73.1142 186.852C73.4213 184.27 72.8994 181.657 71.6236 179.388C70.44 177.204 68.9494 175.348 67.8315 173.42C66.7868 171.632 66.0166 169.698 65.5463 167.682C64.8758 164.762 64.8272 161.733 65.4038 158.793C65.6084 157.718 65.9205 156.667 66.3354 155.654C66.3221 155.724 66.3037 155.793 66.2806 155.861C66.2313 156.009 66.171 156.205 66.0888 156.462C65.8661 157.234 65.6832 158.018 65.5408 158.81C65.0051 161.731 65.0797 164.731 65.76 167.622C66.2365 169.614 67.0086 171.524 68.0507 173.289C69.1467 175.195 70.6646 177.051 71.8867 179.257C73.1943 181.568 73.7316 184.233 73.4211 186.868C73.1416 189.598 72.21 192.285 71.3168 195.009C70.4235 197.734 69.618 200.469 69.5138 203.139C69.4759 205.736 69.8269 208.323 70.555 210.816C71.2072 213.213 72.0017 215.446 72.6922 217.554C73.3614 219.501 73.8996 221.491 74.3033 223.511C74.9734 226.434 74.9734 229.47 74.3033 232.394C74.0836 233.178 73.792 233.94 73.432 234.671C73.306 234.906 73.2128 235.091 73.1361 235.217C73.1108 235.287 73.0757 235.353 73.032 235.413Z" fill="#263238"/>
<path d="M69.3822 175.304C69.3822 175.304 67.1135 168.081 71.1797 163.838C71.2115 163.804 71.2522 163.779 71.2974 163.767C71.3425 163.754 71.3902 163.755 71.4351 163.768C71.48 163.781 71.5204 163.806 71.5518 163.841C71.5832 163.875 71.6042 163.918 71.6126 163.964C71.8263 165.165 72.1003 168.801 69.3822 175.304Z" fill="#FEC807"/>
<path d="M70.7413 166.257C70.7349 166.705 70.6835 167.151 70.5879 167.589C70.4344 168.507 70.2591 169.588 70.0399 170.778C69.8207 171.968 69.6782 173.049 69.5357 173.967C69.4938 174.411 69.4131 174.852 69.2946 175.282C69.2526 174.835 69.2655 174.384 69.3329 173.939C69.4097 173.115 69.5521 171.979 69.7604 170.734C69.9686 169.489 70.1823 168.365 70.3632 167.551C70.436 167.106 70.563 166.671 70.7413 166.257Z" fill="#263238"/>
<path d="M72.0455 192.35C72.0455 192.35 73.432 184.908 79.0161 183.068C79.0599 183.052 79.1074 183.049 79.153 183.059C79.1986 183.069 79.2405 183.091 79.2738 183.124C79.3071 183.156 79.3304 183.198 79.341 183.243C79.3517 183.288 79.3492 183.336 79.3339 183.379C78.9668 184.548 77.5036 187.868 72.0455 192.35Z" fill="#FEC807"/>
<path d="M77.4927 184.985C77.277 185.374 77.0217 185.74 76.731 186.077L74.7801 188.654L72.8347 191.231C72.5924 191.609 72.3134 191.962 72.0017 192.285C72.177 191.87 72.4014 191.478 72.6703 191.116C73.1251 190.423 73.7663 189.478 74.5499 188.479C75.3336 187.48 76.0405 186.585 76.572 185.951C76.84 185.594 77.149 185.27 77.4927 184.985Z" fill="#263238"/>
<path d="M70.5331 211.024C70.5331 211.024 69.6947 203.5 74.4952 200.104C74.5331 200.076 74.5779 200.06 74.6246 200.056C74.6713 200.053 74.718 200.063 74.7596 200.084C74.8011 200.106 74.8358 200.138 74.8598 200.178C74.8837 200.218 74.896 200.264 74.8952 200.311C74.8788 201.54 74.4513 205.16 70.5331 211.024Z" fill="#FEC807"/>
<path d="M73.6019 202.402C73.5105 202.841 73.3746 203.269 73.1963 203.68L72.1003 206.71C71.6839 207.846 71.3112 208.894 71.0043 209.746C70.8789 210.174 70.7157 210.591 70.5166 210.991C70.5607 210.543 70.6601 210.103 70.8125 209.68C71.0427 208.883 71.4044 207.797 71.8428 206.612C72.2812 205.427 72.7141 204.368 73.0429 203.609C73.1816 203.186 73.3692 202.781 73.6019 202.402Z" fill="#263238"/>
<path d="M74.7417 229.811C74.7417 229.811 74.1937 222.26 79.0928 219.055C79.131 219.028 79.1761 219.012 79.2229 219.01C79.2697 219.007 79.3162 219.018 79.357 219.041C79.3979 219.064 79.4313 219.098 79.4534 219.139C79.4755 219.18 79.4854 219.227 79.4819 219.274C79.4216 220.486 78.8627 224.084 74.7417 229.811Z" fill="#FEC807"/>
<path d="M78.1173 221.299C78.0081 221.735 77.8557 222.16 77.6625 222.566C77.3118 223.429 76.8953 224.439 76.4405 225.553C75.9856 226.666 75.5691 227.682 75.2184 228.545C75.0764 228.971 74.8928 229.382 74.6704 229.773C74.7358 229.328 74.8516 228.892 75.0157 228.474C75.2732 227.687 75.6733 226.617 76.161 225.449C76.6487 224.28 77.109 223.232 77.4652 222.484C77.6361 222.065 77.855 221.668 78.1173 221.299Z" fill="#263238"/>
<path d="M66.1217 168.96C66.1217 168.96 59.3868 165.438 59.2498 159.596C59.2476 159.549 59.2586 159.503 59.2815 159.462C59.3043 159.421 59.3382 159.387 59.3792 159.365C59.4202 159.342 59.4667 159.331 59.5135 159.333C59.5604 159.336 59.6057 159.351 59.6443 159.377C60.6472 160.065 63.4201 162.446 66.1217 168.96Z" fill="#FEC807"/>
<path d="M60.6527 161.616C60.9671 161.938 61.248 162.291 61.4911 162.67L63.3872 165.285L65.2943 167.895C65.5847 168.234 65.8416 168.599 66.0615 168.987C65.713 168.701 65.4019 168.373 65.1354 168.01C64.5874 167.376 63.8969 166.47 63.1571 165.443C62.4173 164.417 61.7761 163.472 61.3268 162.774C61.059 162.414 60.8329 162.026 60.6527 161.616Z" fill="#263238"/>
<path d="M73.3553 184.477C73.3553 184.477 66.4177 181.387 65.9299 175.544C65.9246 175.498 65.9326 175.452 65.9529 175.41C65.9731 175.368 66.0049 175.333 66.0445 175.308C66.0841 175.283 66.1299 175.271 66.1765 175.271C66.2232 175.271 66.2688 175.285 66.3081 175.31C67.3493 175.938 70.2591 178.138 73.3553 184.477Z" fill="#FEC807"/>
<path d="M67.4479 177.45C67.7795 177.751 68.0805 178.084 68.3466 178.444L70.4016 180.944C71.1743 181.873 71.8702 182.713 72.4621 183.434C72.7715 183.757 73.0504 184.108 73.295 184.482C72.9325 184.217 72.6032 183.909 72.3141 183.565C71.7661 182.965 70.9825 182.102 70.1824 181.119C69.3823 180.136 68.6809 179.235 68.1877 178.569C67.8999 178.225 67.6518 177.849 67.4479 177.45Z" fill="#263238"/>
<path d="M69.3604 201.791C69.3604 201.791 64.5983 195.888 66.8342 190.467C66.8505 190.423 66.8788 190.385 66.916 190.357C66.9531 190.329 66.9975 190.312 67.044 190.308C67.0904 190.304 67.1371 190.313 67.1785 190.334C67.22 190.356 67.2545 190.388 67.278 190.428C67.9192 191.46 69.5084 194.742 69.3604 201.791Z" fill="#FEC807"/>
<path d="M67.3053 192.869C67.4637 193.29 67.5793 193.725 67.6506 194.169C67.8533 195.075 68.0835 196.145 68.341 197.324C68.5986 198.504 68.8342 199.563 69.037 200.475C69.1654 200.904 69.2535 201.345 69.3 201.791C69.0938 201.39 68.9409 200.964 68.8452 200.524C68.6096 199.727 68.3301 198.618 68.0616 197.379C67.793 196.14 67.5848 195.02 67.4533 194.207C67.3538 193.768 67.3042 193.319 67.3053 192.869Z" fill="#263238"/>
<path d="M74.0786 222.162C74.0786 222.162 67.1957 218.946 66.8066 213.104C66.8038 213.058 66.8137 213.012 66.8352 212.971C66.8567 212.931 66.889 212.897 66.9285 212.873C66.9681 212.849 67.0134 212.837 67.0596 212.837C67.1057 212.838 67.1509 212.85 67.1902 212.874C68.2205 213.519 71.0975 215.768 74.0786 222.162Z" fill="#FEC807"/>
<path d="M68.2917 215.053C68.6181 215.362 68.9136 215.702 69.174 216.069L71.1907 218.596C71.9414 219.541 72.6264 220.393 73.2073 221.119C73.511 221.459 73.7842 221.824 74.0238 222.211C73.6656 221.936 73.3401 221.621 73.0539 221.272C72.5059 220.66 71.7496 219.787 70.966 218.793C70.1823 217.799 69.4973 216.887 69.0151 216.21C68.7302 215.854 68.4875 215.465 68.2917 215.053Z" fill="#263238"/>
<path d="M87.7896 192.388C87.7896 192.388 87.7896 192.449 87.7896 192.558C87.7896 192.667 87.7896 192.847 87.7896 193.044C87.7677 193.495 87.7403 194.107 87.7074 194.878C87.6197 196.516 87.4937 198.744 87.3457 201.43C86.8525 204.16 85.4551 207.201 83.57 210.166C82.189 212.35 80.7478 214.316 79.4984 216.172C78.3636 217.777 77.3437 219.459 76.446 221.206C75.8538 222.389 75.3749 223.625 75.0157 224.897C74.8952 225.351 74.802 225.7 74.7527 225.94C74.7295 226.065 74.6947 226.188 74.6486 226.306C74.6496 226.179 74.6643 226.053 74.6924 225.929C74.7308 225.684 74.802 225.329 74.9061 224.87C75.2296 223.577 75.6849 222.32 76.2652 221.119C77.1411 219.35 78.1486 217.649 79.2792 216.03C80.5176 214.179 81.9589 212.208 83.3289 210.024C85.203 207.092 86.6169 204.1 87.1046 201.403C87.2909 198.711 87.4498 196.489 87.5649 194.851C87.6252 194.087 87.6745 193.475 87.7129 193.022C87.7129 192.831 87.7512 192.672 87.7622 192.541C87.765 192.489 87.7742 192.438 87.7896 192.388Z" fill="#263238"/>
<path d="M83.6906 209.609C83.6906 209.609 86.606 202.62 82.9399 198.04C82.9125 198.002 82.8749 197.973 82.8315 197.955C82.788 197.938 82.7406 197.933 82.6946 197.942C82.6487 197.951 82.6061 197.972 82.5719 198.004C82.5377 198.036 82.5133 198.076 82.5015 198.121C82.2001 199.29 81.5754 202.888 83.6906 209.609Z" fill="#FEC807"/>
<path d="M83.1645 200.475C83.2889 200.906 83.3661 201.349 83.3946 201.796C83.4988 202.621 83.6138 203.756 83.7015 205.017C83.7892 206.279 83.8385 207.425 83.833 208.25C83.8583 208.699 83.8326 209.15 83.7563 209.593C83.6732 209.154 83.6328 208.708 83.6358 208.261C83.57 207.332 83.4988 206.24 83.4166 205.039C83.3344 203.838 83.2576 202.746 83.1919 201.818C83.1344 201.372 83.1252 200.922 83.1645 200.475Z" fill="#263238"/>
<g opacity="0.3">
<path opacity="0.3" d="M83.6906 209.609C83.6906 209.609 86.606 202.62 82.9399 198.04C82.9125 198.002 82.8749 197.973 82.8315 197.955C82.788 197.938 82.7406 197.933 82.6946 197.942C82.6487 197.951 82.6061 197.972 82.5719 198.004C82.5377 198.036 82.5133 198.076 82.5015 198.121C82.2001 199.29 81.5754 202.888 83.6906 209.609Z" fill="black"/>
</g>
<path d="M74.665 226.459C74.665 226.459 76.9995 219.257 72.9717 214.993C72.9403 214.959 72.8999 214.934 72.8552 214.921C72.8105 214.908 72.7631 214.908 72.7183 214.921C72.6734 214.933 72.633 214.958 72.6013 214.992C72.5696 215.026 72.548 215.068 72.5388 215.113C72.336 216.298 72.0017 219.929 74.665 226.459Z" fill="#FEC807"/>
<path d="M73.3882 217.401C73.5512 217.819 73.6652 218.255 73.7279 218.7C73.8978 219.508 74.1061 220.633 74.2759 221.883C74.4458 223.134 74.6047 224.269 74.6705 225.094C74.726 225.54 74.726 225.991 74.6705 226.437C74.5565 226.004 74.4813 225.562 74.4458 225.116C74.3088 224.198 74.1444 223.117 73.9691 221.927C73.7937 220.737 73.6238 219.65 73.4813 218.733C73.4053 218.293 73.3741 217.847 73.3882 217.401Z" fill="#263238"/>
<g opacity="0.3">
<path opacity="0.3" d="M74.665 226.459C74.665 226.459 76.9995 219.257 72.9717 214.993C72.9403 214.959 72.8999 214.934 72.8552 214.921C72.8105 214.908 72.7631 214.908 72.7183 214.921C72.6734 214.933 72.633 214.958 72.6013 214.992C72.5696 215.026 72.548 215.068 72.5388 215.113C72.336 216.298 72.0017 219.929 74.665 226.459Z" fill="black"/>
</g>
<path d="M87.406 201.064C87.406 201.064 93.6313 196.724 93.0011 190.898C92.9964 190.852 92.9792 190.808 92.9513 190.772C92.9234 190.735 92.8859 190.707 92.8429 190.69C92.7999 190.673 92.753 190.668 92.7075 190.676C92.662 190.684 92.6194 190.704 92.5846 190.734C91.6804 191.548 89.2418 194.261 87.406 201.064Z" fill="#FEC807"/>
<g opacity="0.3">
<path opacity="0.3" d="M87.406 201.064C87.406 201.064 93.6313 196.724 93.0011 190.898C92.9964 190.852 92.9792 190.808 92.9513 190.772C92.9234 190.735 92.8859 190.707 92.8429 190.69C92.7999 190.673 92.753 190.668 92.7075 190.676C92.662 190.684 92.6194 190.704 92.5846 190.734C91.6804 191.548 89.2418 194.261 87.406 201.064Z" fill="black"/>
</g>
<path d="M91.8777 193.071C91.7499 193.502 91.5753 193.917 91.3571 194.31C91.0064 195.058 90.4912 196.085 89.8884 197.193C89.2856 198.302 88.7048 199.295 88.2444 199.994C88.0297 200.391 87.7645 200.758 87.4553 201.086C87.6281 200.673 87.8353 200.275 88.0746 199.896C88.5239 199.082 89.0445 198.127 89.6254 197.068C90.2063 196.008 90.7214 195.048 91.1707 194.229C91.3649 193.819 91.6018 193.431 91.8777 193.071Z" fill="#263238"/>
<path d="M77.1748 219.317C77.1748 219.317 84.6824 218.149 86.6936 212.645C86.7104 212.602 86.7149 212.555 86.7064 212.509C86.698 212.463 86.677 212.421 86.6457 212.386C86.6145 212.352 86.5742 212.326 86.5295 212.313C86.4847 212.3 86.4372 212.3 86.3922 212.312C85.2194 212.65 81.8273 214.032 77.1748 219.317Z" fill="#FEC807"/>
<g opacity="0.3">
<path opacity="0.3" d="M77.1748 219.317C77.1748 219.317 84.6824 218.149 86.6936 212.645C86.7104 212.602 86.7149 212.555 86.7064 212.509C86.698 212.463 86.677 212.421 86.6457 212.386C86.6145 212.352 86.5742 212.326 86.5295 212.313C86.4847 212.3 86.4372 212.3 86.3922 212.312C85.2194 212.65 81.8273 214.032 77.1748 219.317Z" fill="black"/>
</g>
<path d="M84.7207 214.103C84.4174 214.436 84.0773 214.735 83.7069 214.993C83.0603 215.506 82.1451 216.2 81.1094 216.931C80.0737 217.663 79.1202 218.296 78.4133 218.733C78.0432 218.992 77.6418 219.203 77.2186 219.361C77.5561 219.059 77.9233 218.792 78.3146 218.564L80.956 216.702L83.5973 214.829C83.9476 214.552 84.3238 214.309 84.7207 214.103Z" fill="#263238"/>
<path d="M70.0124 233.087L67.8204 247.775H81.4711L79.7011 233.087H70.0124Z" fill="#231F20"/>
<path d="M80.2437 237.635C78.4208 237.779 76.5916 237.826 74.7637 237.777C72.9358 237.826 71.1066 237.779 69.2837 237.635C71.1068 237.496 72.9358 237.448 74.7637 237.494C76.5916 237.448 78.4206 237.496 80.2437 237.635Z" fill="#263238"/>
<path d="M80.5177 238.804C78.6253 238.948 76.7268 238.995 74.8295 238.946C72.934 238.995 71.0373 238.948 69.1467 238.804C69.1467 238.727 71.6894 238.662 74.8295 238.662C77.9695 238.662 80.5177 238.727 80.5177 238.804Z" fill="#263238"/>
</svg>
